<?xml version="1.0" encoding="utf-8"?>
<!-- Generator: Adobe Illustrator 28.0.0, SVG Export Plug-In . SVG Version: 6.00 Build 0)  -->
<svg version="1.1" id="Layer_1" xmlns="http://www.w3.org/2000/svg" xmlns:xlink="http://www.w3.org/1999/xlink" x="0px" y="0px"
	 viewBox="0 300 792 312" style="enable-background:new 0 0 792 612;" xml:space="preserve">
<style type="text/css">
	.Arched_x0020_Green{fill:url(#SVGID_1_);stroke:#FFFFFF;stroke-width:0.25;stroke-miterlimit:1;}
	.st0{fill:#FFFFFF;}
	.st1{fill:#ED1C24;}
	.st2{display:none;}
	.st3{display:inline;fill:#ED1C24;}
	.st4{display:inline;}
</style>
<linearGradient id="SVGID_1_" gradientUnits="userSpaceOnUse" x1="0" y1="612" x2="0.7071" y2="611.2929">
	<stop  offset="0" style="stop-color:#20AC4B"/>
	<stop  offset="0.9831" style="stop-color:#19361A"/>
</linearGradient>
<g>
	<g>
		<path d="M264.35,516.37c0.9,0.56,1.15,1.76,0.57,2.68c-0.59,0.91-1.79,1.2-2.69,0.64c-0.9-0.57-1.15-1.76-0.57-2.68
			C262.24,516.09,263.44,515.81,264.35,516.37z"/>
		<path d="M277.57,528.72c0.15,0.08,0.33,0.04,0.49-0.17l0.15,0.08l-0.86,1.73l-0.13-0.06c0.03-0.28-0.01-0.34-0.21-0.44l-5.69-2.74
			l0.08-0.16c0.18,0.08,0.39,0.12,0.48-0.06l2.46-4.89c0.08-0.18-0.08-0.31-0.25-0.4l0.08-0.15l5.78,2.79
			c0.1,0.04,0.26,0.05,0.38-0.17l0.16,0.06l-0.88,1.73l-0.15-0.07c0.13-0.26,0.03-0.38-0.08-0.42l-3.72-1.8l-0.52,1.04l2.39,1.15
			c0.1,0.05,0.25,0.06,0.38-0.19l0.16,0.08l-0.84,1.68l-0.16-0.08c0.13-0.24,0.03-0.35-0.08-0.41l-2.39-1.15l-0.65,1.28
			L277.57,528.72z"/>
		<path d="M287.48,531.89l0.14,0.15c-0.02,0.04-0.05,0.08-0.08,0.14c-0.13,0.35,1.25,1.26,2.33,1.66c0.33,0.12,1.23,0.4,1.43-0.13
			c0.41-1.04-4.32-1.63-3.43-3.89c0.34-0.83,1.58-1.69,3.73-0.89c1.26,0.47,2.21,1.22,2.5,1.33c0.15,0.05,0.26-0.02,0.35-0.05
			l0.13,0.11l-1.46,1.38l-0.14-0.15c0.03-0.04,0.05-0.09,0.08-0.14c0.05-0.13-0.75-0.84-1.64-1.18c-0.33-0.12-1.5-0.56-1.74,0.02
			c-0.38,0.96,4.34,1.59,3.43,3.91c-0.41,1.04-1.66,1.62-3.68,0.88c-1.28-0.48-2.57-1.52-2.68-1.55c-0.12-0.05-0.25,0.01-0.38,0.07
			l-0.13-0.09L287.48,531.89z"/>
		<path d="M308.95,534.64c0.11,0.03,0.26,0.02,0.33-0.23l0.15,0.05l-0.62,2l-0.16-0.04c0.08-0.26-0.04-0.35-0.14-0.38l-1.95-0.56
			l-1.32,4.22c-0.07,0.2,0.08,0.28,0.22,0.34l-0.05,0.16l-2.45-0.71l0.05-0.16c0.16,0.03,0.33,0.03,0.39-0.17l1.33-4.21l-1.95-0.56
			c-0.11-0.04-0.26-0.01-0.33,0.23l-0.16-0.05l0.62-2l0.17,0.05c-0.08,0.25,0.03,0.34,0.14,0.37L308.95,534.64z"/>
		<path d="M321.81,544.28l0.04-0.17c0.05,0.01,0.18,0.04,0.21-0.08c0.04-0.16-0.14-0.77-0.17-1.04l-3.21-0.71
			c-0.14,0.23-0.6,0.71-0.64,0.85c-0.03,0.13,0.08,0.16,0.15,0.17l-0.05,0.17l-2.08-0.45l0.04-0.18c0.12,0.03,0.26,0.01,0.33-0.08
			c1.73-2.35,3.7-4.78,3.75-4.98c0.02-0.1-0.01-0.13-0.15-0.17l0.04-0.17l2.9,0.64l-0.04,0.17c-0.15-0.02-0.2,0-0.21,0.1
			c-0.05,0.17,0.93,4.51,1.19,6.08c0.02,0.1,0.13,0.18,0.25,0.2l-0.04,0.17L321.81,544.28z M321.67,541.88l-0.56-2.69l-1.74,2.18
			L321.67,541.88z"/>
		<path d="M334.92,540.83c0.04-0.2-0.12-0.27-0.41-0.32l0.03-0.17l4.23,0.67c1.69,0.27,2.3,0.66,2.07,1.91
			c-0.11,0.59-0.62,1.05-1.17,1.2c0.7,0.37,1.01,0.88,0.85,1.69c-0.2,1.1-1.08,1.68-2.84,1.4l-4.28-0.69l0.03-0.17
			c0.29,0.03,0.46,0.02,0.5-0.18L334.92,540.83z M336.41,543.24l1.67,0.28c0.73,0.12,0.99-0.17,1.06-0.54
			c0.1-0.56-0.2-0.72-0.8-0.82l-1.68-0.27L336.41,543.24z M335.95,545.72l1.52,0.25c0.65,0.11,1.21-0.01,1.31-0.58
			c0.15-0.76-0.47-0.86-1.02-0.95l-1.53-0.25L335.95,545.72z"/>
		<path d="M350.54,543.1c0.04-0.2-0.14-0.27-0.34-0.3l0.02-0.17l2.65,0.29l-0.03,0.17c-0.2-0.01-0.38,0.01-0.41,0.21l-0.59,4.36
			l3.87,0.43c0.12,0.02,0.27-0.03,0.3-0.33l0.17,0.03l-0.29,2.15l-0.17-0.03c0.05-0.29-0.09-0.36-0.21-0.38l-6.15-0.68l0.03-0.16
			c0.21,0,0.39-0.02,0.41-0.22L350.54,543.1z"/>
		<path d="M368.33,544.27l-0.02,0.16c-0.29,0-0.46,0.03-0.49,0.24l-0.5,5.4c-0.02,0.2,0.14,0.25,0.43,0.29l-0.01,0.17l-2.81-0.18
			l0.02-0.17c0.29,0.01,0.46-0.02,0.47-0.22l0.51-5.41c0.02-0.2-0.14-0.25-0.43-0.29l0.02-0.17L368.33,544.27z"/>
		<path d="M377.49,548.83l0.19,0.1c-0.01,0.04-0.03,0.08-0.03,0.15c-0.01,0.37,1.6,0.79,2.75,0.82c0.35,0.02,1.3-0.01,1.33-0.58
			c0.06-1.11-4.67-0.15-4.53-2.55c0.05-0.88,0.96-2.1,3.28-2.04c1.36,0.04,2.5,0.45,2.82,0.45c0.15,0.01,0.25-0.11,0.32-0.16
			l0.15,0.06l-0.95,1.78l-0.18-0.1c0-0.04,0.02-0.09,0.02-0.15c0-0.15-0.99-0.55-1.94-0.58c-0.36-0.02-1.63-0.04-1.66,0.58
			c-0.05,1.01,4.66,0.1,4.53,2.59c-0.05,1.1-1.06,2.05-3.25,1.99c-1.36-0.04-2.93-0.6-3.04-0.6c-0.13,0-0.24,0.09-0.34,0.19
			l-0.16-0.04L377.49,548.83z"/>
		<path d="M394.96,548.65l-0.02,2.17c-0.01,0.19,0.17,0.23,0.39,0.24l0,0.17l-2.71,0.04l0-0.17c0.22-0.02,0.4-0.07,0.41-0.26
			l0.05-5.41c0-0.2-0.17-0.24-0.39-0.25l0-0.17l2.7-0.04l0.01,0.17c-0.23,0.02-0.41,0.07-0.4,0.26l-0.02,1.8l3.15-0.05l0.01-1.8
			c0.01-0.2-0.15-0.24-0.39-0.24l0-0.18l2.71-0.03l0,0.17c-0.23,0.01-0.4,0.06-0.4,0.26l-0.05,5.42c0,0.2,0.16,0.23,0.39,0.24
			l0,0.17l-2.7,0.04l-0.01-0.17c0.23-0.02,0.4-0.07,0.41-0.26l0.02-2.17L394.96,548.65z"/>
		<path d="M416.21,549.14c0.17-0.01,0.31-0.12,0.36-0.38l0.17-0.01l0.07,1.91l-0.15,0.01c-0.09-0.26-0.18-0.29-0.4-0.28l-6.37,0.39
			l0-0.17c0.2-0.02,0.4-0.08,0.39-0.28l-0.19-5.4c-0.01-0.2-0.2-0.23-0.41-0.24l-0.01-0.17l6.48-0.4c0.11,0,0.25-0.06,0.24-0.32
			l0.17-0.01l0.08,1.91l-0.18,0.01c-0.02-0.28-0.16-0.34-0.27-0.33l-4.17,0.26l0.05,1.14l2.67-0.16c0.11-0.01,0.25-0.07,0.24-0.34
			l0.17-0.01l0.08,1.85l-0.18,0.01c-0.02-0.26-0.16-0.31-0.27-0.31l-2.69,0.17l0.06,1.41L416.21,549.14z"/>
		<path d="M426.22,543.68c-0.02-0.2-0.2-0.22-0.39-0.22l-0.03-0.16l4.28-0.48c2.1-0.24,3.09,1.11,3.23,2.79
			c0.13,1.67-0.6,3.21-2.69,3.45l-4.27,0.48l-0.02-0.17c0.2-0.04,0.36-0.09,0.35-0.29L426.22,543.68z M428.51,547.92l1.02-0.12
			c1.45-0.15,2.04-0.71,1.93-1.99c-0.11-1.27-0.77-1.68-2.22-1.53l-1.03,0.11L428.51,547.92z"/>
		<path d="M455.23,540.91l-0.41-2.25l0.17-0.04c0.02,0.1,0.07,0.34,0.21,0.31c0.08-0.01,0.74-0.47,0.86-0.53l-0.08-0.44
			c-0.03-0.2-0.21-0.2-0.33-0.2l-0.03-0.16l2.76-0.57l0.03,0.17c-0.19,0.05-0.36,0.13-0.32,0.32l1.17,6.52
			c0.04,0.2,0.22,0.2,0.38,0.18l0.04,0.17l-2.79,0.57l-0.04-0.16c0.19-0.05,0.34-0.13,0.3-0.32l-0.8-4.45
			c-0.93,0.44-1.01,0.46-0.95,0.84L455.23,540.91z"/>
		<path d="M471.23,539.39l0.17,0.03l0.03,0.13c0.13,0.47,1.05,0.45,1.96,0.2c1.16-0.32,2.11-1.24,1.9-2.58
			c-0.83,0.75-1.5,1.17-2.42,1.42c-1.42,0.39-2.93-0.18-3.3-1.68c-0.44-1.78,1.23-2.92,2.71-3.32c2.31-0.63,4.13,0.13,4.73,2.53
			c0.6,2.42-1.02,4.36-3.29,4.97c-0.71,0.2-1.36,0.26-1.83,0.26c-0.47-0.01-0.76-0.04-0.81-0.03c-0.12,0.03-0.21,0.1-0.29,0.24
			l-0.18-0.02L471.23,539.39z M471.35,536.42c0.21,0.81,1.26,0.75,1.78,0.6c0.53-0.14,1.48-0.61,1.28-1.43
			c-0.21-0.81-1.26-0.74-1.78-0.6C472.1,535.14,471.16,535.61,471.35,536.42z"/>
		<path d="M491.8,529.57c0.24,0.71-0.07,1.33-0.6,1.83c0.91-0.01,1.66,0.27,1.96,1.16c0.59,1.77-1.45,2.91-2.83,3.4
			c-1.39,0.49-3.67,0.86-4.25-0.9c-0.29-0.89,0.15-1.59,0.72-2.16c-0.56-0.06-1.18-0.35-1.41-1.06c-0.56-1.67,1.52-2.74,2.56-3.11
			C488.99,528.36,491.26,527.9,491.8,529.57z M488.01,534.32c0.24,0.73,1.34,0.5,1.88,0.31c0.54-0.19,1.54-0.71,1.3-1.43
			c-0.25-0.73-1.34-0.5-1.88-0.32C488.77,533.09,487.78,533.6,488.01,534.32z M489.88,530.34c-0.19-0.6-1.02-0.47-1.51-0.29
			c-0.49,0.17-1.21,0.58-1.02,1.18c0.2,0.61,1.02,0.47,1.51,0.3C489.35,531.35,490.08,530.94,489.88,530.34z"/>
		<path d="M508.04,524.56c0.87,1.99-0.11,4.22-2.05,5.12c-1.95,0.87-4.22,0.13-5.09-1.86c-0.88-2,0.11-4.23,2.05-5.12
			C504.89,521.82,507.16,522.56,508.04,524.56z M502.83,526.93c0.42,0.96,1.35,1.74,2.49,1.22c1.14-0.52,1.19-1.74,0.76-2.7
			c-0.41-0.96-1.33-1.74-2.47-1.22C502.47,524.75,502.42,525.97,502.83,526.93z"/>
		<path d="M516.6,517.61c0.95-0.55,2.13-0.25,2.66,0.68c0.52,0.93,0.19,2.11-0.74,2.66c-0.95,0.55-2.13,0.25-2.66-0.68
			C515.34,519.34,515.66,518.16,516.6,517.61z"/>
	</g>
	<path class="st0" d="M594.4,494.51c-0.75,13.4-9.4,15.48-9.79,15.56l-0.45,0.1l-0.46-0.1c-20.28-4.34-41.03-7.91-62.12-10.81
		c-0.42-0.06-0.84-0.13-1.27-0.19l0,0c-41-5.59-83.34-8.5-126.6-8.58c-66.4-0.12-131.04,6.3-192.16,19.1l-0.15,0.03l-0.16,0.01
		c-0.38,0.03-9.2,0.4-10.84-16.49c-0.04-0.37-0.04-0.71-0.05-1.06c-0.08,0.89-0.1,1.83,0,2.82c1.65,16.9,10.46,16.51,10.84,16.49
		l0.16-0.01l0.15-0.03c19.33-4.04,39.05-7.39,59.04-10.15c29.82,19.13,77.01,31.61,129.76,31.71
		c53.22,0.1,101.49-12.41,132.32-31.73c20.71,2.87,41.09,6.38,61.03,10.65l0.46,0.1l0.45-0.11c0.39-0.08,9.46-2.22,9.85-16.44
		C594.42,495.08,594.4,494.81,594.4,494.51z M390.39,529.34c-51.81-0.1-94.77-10.6-124.14-28.93c41.4-5.46,84.02-8.23,127.41-8.15
		c42.43,0.08,83.99,2.87,124.25,8.25C487.4,518.95,442.55,529.44,390.39,529.34z"/>
	<g>
		<path d="M634.49,454.62l-4.56-3.44l-1.51-14.82c0,0-0.14-3.05-0.48-3.5c0.86-7.2-6.52-16.92-21.74-20.11
			c-5.05-1.06-7.98-2.19-11.99-1.32l0.37-1.41l-11.61-2.35l-49.24-5.77l-5.82,7.13c-0.45-1.81-1.28-3.49-2.47-5
			c-3.1-3.92-8.32-6.27-15.53-7c-9.32-0.94-20.15,2.11-29.11,7.77c-1.02-4.28-3.7-7.71-7.54-9.76l21.12-30.33l-4.93-9.89
			l-35.41,0.59l-13.79,20.5l-38.6,0.5l-10.2,16.38l-10.15-0.08l-2.44,5.16c-4.06-3.84-10.07-7.21-19.68-6.9
			c-3.61,0.11-7.18,0.69-10.63,1.62l-1.73-2.5l-59.65,7.19l-5.03,3.57c0.02-1.24,1.9-4.67,1.52-9.42c-0.42-5.16-1.52-6.76-1.52-6.76
			l5.44-0.31l-9.93-29.65l-7.29,0.46c-4.91,0.81-9.21,1.89-13.11,3.31c-2.76,0.92-5.49,2.12-8.42,3.69
			c-6.45-0.37-15.38,0.21-23.66,1.56c-33.11,5.43-67.17,31.63-63.38,60.63c-0.73,3.94-0.86,8.05-0.27,12.3
			c0.1,0.63,0.22,1.25,0.34,1.86c-0.89,0.76-1.72,1.6-2.43,2.56c-2.6,3.51-3.84,21.42-3.42,24.49c0.82,5.91,3.66,10.78,8.19,14.09
			c5.83,4.26,14.06,5.67,23.79,4.07c1.97-0.32,3.83-0.72,5.65-1.16c-1.11,1.35-2.03,2.94-2.62,4.77c-1.32,2.43-2.1,5.36-1.77,8.83
			c1.72,17.59,10.93,17.51,11.97,17.44l0.24-0.01l0.22-0.05c17.61-3.69,35.53-6.83,53.68-9.45c29.34,21.11,79.15,33.9,135.08,34
			c56.33,0.11,107.22-12.67,137.63-33.96c18.8,2.73,37.35,6.04,55.31,9.89l0.69,0.14l0.69-0.14c0.42-0.09,10.3-2.42,10.71-17.5
			c0.12-4.61-0.68-7.98-1.87-10.48c-0.42-1.41-0.94-2.61-1.55-3.59c14.89-0.21,26.8-5.72,37.38-14.01c3.56-2.8,5.47-5.58,5.47-5.58
			l0.08-0.06L634.49,454.62z"/>
		<path d="M257.11,358.5c0.02-0.01,0.07-0.02,0.12-0.04c0.04-0.02,0.07-0.03,0.11-0.04L257.11,358.5z"/>
	</g>
	<path class="st1" d="M506.77,495.12c1.27,0.22,2.65,0.39,4.15,0.51C509.53,495.46,508.15,495.28,506.77,495.12z"/>
	<g>
		<path class="st1" d="M227.51,379.04c-13.8,2.26-25.98,9.32-33.46,19.37c-5.74,7.73-8.14,16.42-6.93,25.14
			c0.36,2.56,1.39,6.21,4.27,7.94c1.03,0.09,2.12,0.06,3.26-0.12c1.13-0.19,2.18-0.53,3.15-0.99c-0.25,0.05-0.53,0.11-0.85,0.17
			c-4.58,0.89-7.04-4.3-7.28-5.78c-1.34-7.94,0.72-15.98,5.95-23.26l-0.06-0.09l1.09-1.28c0.52-0.65,1.05-1.3,1.6-1.92l0.03,0.05
			c0.87-0.94,2.34-2.47,4.09-4.01c-0.32-0.48-0.64-0.96-0.98-1.41l-0.59-0.8l0.87-0.52l1.07-0.64l0.73-0.43l0.47,0.68l0.37,0.54
			c0.15,0.21,0.3,0.43,0.44,0.64c0.62-0.47,1.2-0.88,1.73-1.23c-0.04,0-0.08,0-0.12,0.01c6.13-4.21,13.44-7.16,21.34-8.45
			c1.44-0.24,2.82-0.4,4.18-0.53c1.09-1.34,2.25-2.61,3.46-3.84C233.07,378.33,230.47,378.55,227.51,379.04z"/>
		<path class="st1" d="M244.4,406.11c2.13-5.31,4.62-10.82,7.62-16c0.08,0.37,0.16,0.77,0.21,1.19c0.36,2.59,0.19,4.88-0.39,6.91
			c1.27-2.27,2.08-4.74,2.38-7.39c-0.03-0.53-0.07-1.05-0.14-1.61c-0.28-2.02-0.83-3.64-1.68-4.98
			c-4.79,7.41-8.25,15.63-11.36,23.87C242.23,407.47,243.36,406.81,244.4,406.11z"/>
		<path class="st1" d="M169.69,440.57c1.96-0.19,3.71,0.15,5.11,0.95c0.16,0.02,0.32,0.03,0.48,0.05c-4.5-3.24-7.63-8.42-8.54-14.92
			c-0.33-2.43-0.39-4.82-0.18-7.16c-0.13-3.99,0.59-7.99,2.14-11.93c-3.52,6.87-4.8,13.96-3.8,21.2
			C165.54,433.37,167.23,437.37,169.69,440.57z"/>
		<path class="st1" d="M183.31,459.37c0.22-0.04,0.41-0.08,0.61-0.12c1.3-2.22,1.82-4.8,1.43-7.58c-0.14-1.03-0.39-1.98-0.73-2.88
			c2.06,0.2,4.22,0.14,6.44-0.22c3.87-0.64,7.41-1.86,10.59-3.6c1.23-2.07,2.38-4.3,3.49-6.66c-4.11,3.52-8.95,5.8-14.28,6.68
			c-3.56,0.58-6.93,0.32-9.98-0.62c1.47,1.5,2.41,3.48,2.74,5.8c0.36,2.55,0.01,5.91-3.01,8.7c0.16,0.25,0.35,0.48,0.55,0.67
			C181.83,459.53,182.53,459.5,183.31,459.37z"/>
		<path class="st1" d="M252.45,427.55c-0.51-3.71-1.94-6.28-4.24-7.66c-2.43-1.45-5.91-1.55-9.54-0.28l-2.18,0.78
			c-1.8,4.79-3.7,9.52-5.88,14.1c0.9,0.02,1.76,0.15,2.56,0.37c0.02-0.01,0.05-0.02,0.07-0.03c1.67-3.72,3.18-7.51,4.58-11.23
			l1.37-0.48c3.06-1.08,6.06-1.03,8,0.13c1.83,1.09,2.98,3.24,3.42,6.39c0.44,3.2,0.03,6.6-0.9,9.76l0.14,0.12
			c1.45-3.14,2.43-6.66,2.77-10.17C252.58,428.74,252.52,428.13,252.45,427.55z"/>
		<g>
			<path class="st1" d="M451.92,415.22c0.89-0.99,1.72-1.93,2.5-2.85c-8.11,5.34-22.92,21.28-29.39,32.51l-1.09,1.89l-2.15-0.02
				l-15.73-0.14c0,0-2.47-0.02-4.38-0.04c-3.71,1.38-7.43,2.05-11.23,2.01c-4.27-0.04-7.8-1.37-10.2-3.88
				c-2.35-2.45-3.53-5.88-3.38-9.93c0.02-0.6,0.08-1.2,0.15-1.79c-0.01-0.17-0.03-0.34-0.04-0.51c-1.13,1.64-2.41,3.22-3.87,4.72
				c-7.13,7.4-17.3,11.99-27.23,12.3c-7.96,0.25-14.33-1.69-18.42-5.61c-3.31-3.2-5.02-7.51-5.05-12.84c0-0.32,0.01-0.63,0.02-0.95
				c-6.88-0.34-12.23-4.37-13.61-10.24c-6.94,7.84-14.88,21.26-18.07,29.25l-0.82,2.04l-2.18,0.27l-15.32,1.92l-6.51,0.82l2.92-5.92
				l0.38-1.15l-1.29,0.16l0.72-1.48l0.53-1.06c-6.51,8.09-17.6,14.41-28.66,16.22c-5.77,0.94-11.41-0.1-15.1-2.79
				c-2.53-1.85-4.18-4.45-4.83-7.57c-7.54,8.89-18.04,15.66-34.07,18.28c-5.67,0.94-13.64,1.16-19.38-3.03
				c-3.26-2.38-5.29-5.92-5.89-10.24c-0.19-1.35-0.15-2.71,0.07-4.04c0,0,0-0.02,0-0.02c-0.05-0.32-0.08-0.63-0.08-0.94
				c-0.02-0.24-0.02-0.49-0.01-0.73c0-0.06-0.01-0.12-0.01-0.18c0.03-0.6,0.11-1.2,0.24-1.78c-1.79,2.85-2.54,6.36-2.06,9.79
				c0.68,4.87,2.91,8.71,6.59,11.41c4.87,3.55,12.22,4.74,20.72,3.35c13.97-2.29,24.68-7.59,33.1-16.47c1,2.15,2.51,3.99,4.48,5.43
				c4.06,2.96,10.21,4.13,16.44,3.1c8.94-1.46,17.92-5.78,24.67-11.6l-2.59,5.25l6.51-0.81l3.24-0.41l15.32-1.92l1.09-0.13
				l2.17-0.27l0.81-2.05l0.42-1.02c2.61-6.52,9.3-18.34,15.74-26.37c0.85,1.68,2.02,3.21,3.5,4.49c2.43,2.1,5.53,3.43,8.97,3.89
				c0.17,5.52,2.03,10.05,5.57,13.45c5.61,5.38,13.8,6.29,19.71,6.1c10.39-0.33,21.03-5.15,28.5-12.88
				c0.27-0.28,0.52-0.58,0.78-0.87c0.38,3.33,1.64,6.21,3.75,8.41c2.74,2.85,6.7,4.38,11.46,4.42c3.94,0.03,7.87-0.68,11.75-2.11
				c0.86,0.1,2.07,0.12,3.86,0.14l15.73,0.14l1.08,0.01l2.15,0.02l1.09-1.89l0.55-0.95c4.28-7.43,11.27-15.79,17.72-22.3
				C446.24,421.54,449.19,418.25,451.92,415.22z"/>
			<path class="st1" d="M275.33,388.96c1.28,9.22-4.04,16.59-11.92,21.57c6.67,2.27,10.82,7.29,11.86,14.78
				c0.36,2.5,0.26,5.02-0.27,7.52l4.04-8.21c-1.13-7.56-6.5-11.27-11.61-13.18c7.16-5.68,13.35-14.32,10.82-23.8
				c-1.7-6.39-3.45-10.25-7.52-13.25c0.87-0.25,1.69-0.46,2.36-0.6l3.79-0.8c0,0-0.39-1.53-0.67-2.62l-0.89,0.09
				c-4.44,0.47-8.3,1.36-11.33,2.58C270.6,376.57,274.33,381.82,275.33,388.96z"/>
			<path class="st1" d="M625.03,455.33l-1.68,1.25c-8.35,6.27-22.03,12.84-41.06,10.36l-0.71,0.04l0.14-0.13
				c-1.54-0.21-3.12-0.48-4.75-0.82c-11.54-2.43-17.45-9.13-16.13-18.07c-0.16-1.45-0.06-3,0.31-4.63c0.1-0.4,0.23-0.78,0.34-1.16
				c-3.79-0.97-6.95-3.01-8.99-5.88c-1.58-2.22-2.38-4.8-2.4-7.43c-8.5,6.08-19.28,17.39-24.21,24.48l-1.27,1.81l-2.17-0.23
				l-15.25-1.65l-6.48-0.7l1.17-1.44c-5.57,1.85-11.04,2.43-16.91,1.83c-8.64-0.87-13.01-4.5-15.22-8.09
				c-5.85,4.05-11.21,5.91-16.29,5.64c-3.37-0.18-6.26-1.54-8.35-3.94c-2.35-2.69-3.51-6.57-3.19-10.64
				c0.03-0.33,0.07-0.66,0.11-0.98c-0.08-0.81-0.09-1.65-0.03-2.5c0.1-1.19,0.34-2.34,0.67-3.45c-1.36,2.65-2.36,5.52-2.61,8.64
				c-0.36,4.55,0.96,8.9,3.63,11.95c2.4,2.76,5.72,4.32,9.57,4.53c5.04,0.27,10.27-1.37,15.89-4.97c2.65,3.39,7.3,6.58,15.53,7.41
				c4.52,0.46,8.82,0.24,13.09-0.67l5.87,0.63l3.24,0.35l15.27,1.65l1.08,0.12l2.16,0.23l1.26-1.81l0.64-0.91
				c4.03-5.77,13.23-15.81,21.3-22.18c0.43,1.83,1.22,3.6,2.35,5.2c2.12,2.99,5.3,5.17,9.11,6.33c-0.31,0.76-0.57,1.53-0.75,2.34
				c-2.52,10.68,4.06,19.02,17.17,21.78c19.5,4.1,32.26-0.83,43.13-6.78l0.22-0.12c-0.02,0.02,0.18-0.13,0.18-0.13l3.33-2.44
				l4.23-3.13C627.6,457,626.22,456.11,625.03,455.33z"/>
		</g>
		<g>
			<polygon class="st1" points="422.08,399 427.23,390.93 429.03,388.09 432.66,382.42 429.03,382.52 426.36,386.81 418.79,398.96 
							"/>
		</g>
		<path class="st1" d="M455.54,400.09c1.38-0.5,2.77-0.84,4.16-1.05c4.25-6.04,8.48-12.1,12.62-18.05l7.41-10.65l2-2.87l1.29-1.85
			l-1.05-1.94c-0.16-0.29-0.31-0.54-0.46-0.74l-3.2,4.58l-7.4,10.64C465.83,385.44,460.7,392.81,455.54,400.09z"/>
		<path class="st1" d="M489.85,433.69c-0.1,0.52-0.2,1.06-0.27,1.64c-0.11,0.79,0.53,1.55,1.72,2.24c0.01-0.08,0.01-0.17,0.02-0.25
			c0-0.07,0.02-0.12,0.02-0.18c7.32-0.96,17.37-2.47,24.9-6.2l6.45-7.9C515.4,428.69,502.02,431.9,489.85,433.69z"/>
		<path class="st1" d="M621.58,428.33c-0.32-0.51-0.68-1.01-1.09-1.49c1.27,2.78,1.55,5.8,0.9,8.56c-1.4,5.94-7.17,9.61-13.15,8.35
			c-1.28-0.27-2.44-0.7-3.51-1.28c1.37,3.21,2.29,6.75,1.34,10.78c-0.25,1.05-0.58,2.02-0.97,2.94c1.27-0.39,2.56-0.86,3.87-1.39
			c0.32-1.15,0.56-2.21,0.62-2.81c-0.16-1.58-0.58-3.11-1.14-4.55c6.72,1.06,13.07-3.15,14.65-9.87
			C623.87,434.33,623.34,431.14,621.58,428.33z"/>
		<g>
			<path class="st1" d="M356.4,413.5c2.16-2.24,3.71-3.07,4.63-3.37c0.01,0.08,0.02,0.17,0.02,0.28c0.02,2.69-0.82,6.09-2.16,9.65
				c2.01-4.45,3.44-8.92,3.93-12.57c-0.12-0.62-0.37-1.15-0.9-1.14c-1.85,0.06-4.25,1.52-6.75,4.12
				c-7.1,7.36-13.13,21.72-13.08,28.32c-0.01,0.4,0.04,0.72,0.09,1.02c0.58-0.16,1.17-0.39,1.75-0.69
				C344.63,432.87,349.62,420.53,356.4,413.5z"/>
		</g>
		<g>
			<path class="st1" d="M412.68,408.86c-0.89,1.37-1.91,2.93-3.06,4.67c-4.64,7.02-12.23,18.51-13.15,23.88
				c0.82-0.09,1.66-0.25,2.5-0.49c2.28-5.75,8.7-15.46,12.11-20.61c0.95-1.43,1.76-2.68,2.51-3.82l7.28,0.06l2.46-3.59
				L412.68,408.86z"/>
		</g>
	</g>
	<g>
		<path class="st0" d="M269.98,422.13c-1.25-8.97-7.54-13.75-17.91-13.88c9.3-3.63,19.57-10.91,17.97-22.45
			c-1.09-7.86-5.79-12.96-14.73-15.98c3.54-3.12,8.32-4.98,14.59-5.64l0.95-0.1l-0.13-0.95l-0.18-1.36l-0.12-0.89l-0.9,0.15
			c-4.52,0.74-8.44,1.73-11.96,3.01c-2.9,0.97-5.84,2.32-9.16,4.23c-5.94-0.62-15.33-0.11-24.08,1.33
			c-19.79,3.24-39.99,14.71-50.27,28.53c-5.94,7.99-8.36,16.22-7.21,24.49c1.54,11.07,10.4,17.84,21.06,16.08
			c7.19-1.17,13.11-4.65,17.14-10.06c4.51-6.07,6.41-14.45,5.23-22.97c-0.93-6.69-3.25-10.08-5.93-13.99l-0.37-0.54l-0.47-0.68
			l-0.73,0.43l-1.07,0.64l-0.87,0.52l0.59,0.8c2.93,3.99,5.09,8.88,5.62,12.76c1.31,9.35-1.73,24.02-12.36,25.76
			c-6.91,1.13-11.71-2.98-12.81-10.99c-1.5-10.74,2.14-21.6,10.24-30.54c8.05-8.9,19.57-14.96,32.44-17.08
			c8.25-1.35,13.94-0.79,17.27-0.08c-15.58,11.31-22.99,30.82-29.54,48.12c-7.32,19.36-13.63,36.07-28.93,38.58
			c-4.65,0.76-7.4-0.82-8.64-4.98c2.88-1.8,4.09-4.22,3.65-7.42c-0.64-4.59-4.39-7.13-9.34-6.32c-2.43,0.4-4.46,1.61-5.86,3.5
			c-1.51,2.04-2.17,4.71-1.8,7.34c0.5,3.64,2.13,6.5,4.84,8.47c3.9,2.85,10.07,3.76,17.37,2.56c32.68-5.36,41.01-28.07,49.84-52.13
			c4.29-11.68,8.73-23.75,16.17-34.17c2.59,2.09,4.08,4.93,4.63,8.9c1.62,11.63-5.37,20.92-19.16,25.5l-0.47,0.16l-0.13,0.47
			l-0.32,1.09l-0.46,1.65l1.62-0.56c4.39-1.54,8.7-1.37,11.81,0.5c3,1.8,4.86,5.01,5.49,9.54c1.63,11.65-5.88,25.97-14.34,27.35
			c-1.46,0.25-2.67,0.04-3.52-0.58c-0.73-0.53-1.18-1.36-1.33-2.46c-0.51-3.62,2.24-7.62,3.93-9.68l0.56-0.69l-0.66-0.56
			c-1.66-1.43-4.89-2.87-8.57-2.27c-2.75,0.45-4.98,1.74-6.46,3.71c-1.47,1.98-2.04,4.47-1.66,7.21c0.4,2.87,1.73,5.15,3.97,6.79
			c3.13,2.28,8.03,3.15,13.09,2.32c10.84-1.78,21.7-8.11,27.67-16.14C269.09,433.25,270.74,427.6,269.98,422.13z"/>
		<path class="st0" d="M619.37,451.81l-1.53-0.91l-0.44-0.26l-0.46,0.26c-8.51,4.81-15.43,6.97-23.04,7.08
			c3.71-1.95,5.96-4.83,6.91-8.89c1.12-4.79-0.98-8.91-3.03-12.92c-1.79-3.48-3.47-6.76-2.69-10.07c0.45-1.93,1.33-3.36,2.53-4.13
			c0.96-0.62,2.09-0.8,3.38-0.52c1.13,0.24,2,0.82,2.57,1.73c0.85,1.36,1.03,3.41,0.52,5.65c-0.45,1.86-1.33,3.39-2.76,4.8
			l-0.66,0.66l0.66,0.63c1.37,1.33,2.98,2.17,4.91,2.58c2.21,0.47,4.46,0.07,6.32-1.13c1.8-1.15,3.07-2.98,3.58-5.14
			c0.49-2.07,0.16-4.04-0.98-5.85c-1.97-3.14-6.36-5.57-12.33-6.83c-12.7-2.66-21.09,3.17-22.92,10.37
			c-3.98,2.94-7.39,4.24-10.13,3.82c-3.01-0.46-3.54-3.62-3.09-6.19c1.01-5.58,7.37-10.84,10.06-12.84l1.83-1.36l-2.24-0.26
			c-15.4-1.79-16.67-1.35-22.12,3.29c-3.15,0.82-6.92,2.88-11.23,6.06l9.11-9.56l1.23-1.3l-1.75-0.21l-16.33-2.05l-0.5-0.05
			l-0.33,0.4l-18.47,22.64c-10.45,7.83-18.73,11.51-24.6,10.92c-7.25-0.73-7.55-7.07-7.08-10.78c0.18-1.42,0.46-2.68,0.82-3.78
			l1.36-0.18c10.33-1.32,31.81-4.07,33.16-14.76c0.26-2.01-0.19-3.79-1.38-5.27c-1.92-2.42-5.72-3.98-10.97-4.51
			c-15.74-1.59-37.54,10.72-39.58,26.83c-0.18,1.42-0.2,2.8-0.09,4.12c-4.75,3.96-8.45,5.91-10.97,5.78
			c-0.49-0.03-0.85-0.19-1.1-0.46c-0.29-0.33-0.43-0.86-0.38-1.46c0.22-2.68,3.46-6.5,6.89-10.55c4.7-5.53,10.04-11.8,10.54-18.18
			c0.46-5.92-3.18-9.81-9.53-10.15c-8.24-0.44-16.76,5.47-24.42,12.87c9.18-12.43,18.42-25.72,27.44-38.69l7.4-10.64l1.01-1.43
			l-1.73,0.02l-16.45,0.28l-0.48,0.01c0.01-0.01-0.27,0.39-0.27,0.39l-21.44,31.45l-27.2,39.82c-4.51,3.19-8.79,4.73-12.71,4.57
			c-2.87-0.12-3.2-1.54-3.16-2.91c0.2-5.7,8.33-18.01,13.72-26.15c1.52-2.31,2.85-4.32,3.84-5.94l15.31,0.12l0.55,0.01l0.27-0.5
			l0.98-1.83l0.69-1.3l-1.46-0.01l-14.12-0.12l10.04-15.75l0.91-1.42l-1.67,0.04l-15.96,0.45l-0.49,0.01l-0.27,0.43l-10.03,16.09
			l-9-0.07l-0.59,0l-0.25,0.54l-0.88,1.83l-0.6,1.26l1.39,0.02l7.73,0.05l-1.15,1.89l-5.95,9.81c-3.12-0.74-5.02-3.38-7.17-6.44
			c-3.48-4.95-7.81-11.11-19.47-10.75c-11.85,0.37-26.44,7.07-32.31,19.15c-0.37-0.64-0.6-1.38-0.64-2.17
			c-0.31-5.62,4.69-12.18,6.87-14.72l1.47-1.73l-2.25,0.26l-0.36,0.04c-15.25,1.78-15.56,1.81-19.72,7.43
			c-2.88,1.52-6.11,4.38-9.59,8.46l6.71-11.35l0.91-1.53l-1.76,0.19l-16.47,1.78l-0.51,0.05l-0.23,0.46l-20.92,42.54l-0.72,1.48
			l1.63-0.2l15.32-1.92l0.55-0.07l0.2-0.51c3.57-8.92,14.54-27.6,23.06-34.45c-0.15,1.05-0.19,2.24-0.11,3.66
			c0.34,6.31,6.2,10.62,13.65,10.02c0.2-0.02,0.38-0.04,0.57-0.06c-0.17,1.21-0.28,2.42-0.27,3.65c0.03,4.58,1.46,8.27,4.24,10.95
			c4.51,4.33,11.46,5.04,16.5,4.88c9.22-0.29,18.69-4.57,25.33-11.45c5.1-5.29,8.09-11.63,8.59-18.07c1.61,1.62,3.33,2.72,5.22,3.31
			c-4.05,7.04-5.29,10.34-5.42,14.22c-0.12,3.36,0.82,6.16,2.71,8.1c1.9,1.97,4.77,3,8.27,2.98c5.29-0.01,9.94-0.77,14.13-2.26
			l-0.19,0.27l1.67,0.02l15.73,0.15l0.54,0l0.26-0.47c7.54-13.09,28.69-36.12,36.23-35.72c0.54,0.03,0.93,0.2,1.19,0.49
			c0.31,0.35,0.44,0.88,0.39,1.56c-0.2,2.5-2.88,5.48-5.97,8.93c-4.38,4.88-9.33,10.4-9.88,17.24c-0.26,3.37,0.67,6.53,2.56,8.69
			c1.62,1.85,3.86,2.9,6.5,3.04c5.15,0.27,10.77-2.04,17.14-7.07c1.75,5.46,6.72,8.75,14.49,9.53c8.97,0.9,17.01-1.1,26.13-6.61
			l-4.47,5.46l-1.04,1.29l1.63,0.17l15.25,1.65l0.53,0.06l0.32-0.46c5.5-7.9,20.42-23.67,30.24-28.42
			c-0.39,0.99-0.71,2.15-0.95,3.55c-0.49,2.71,0.13,5.45,1.75,7.73c1.96,2.76,5.22,4.62,9.14,5.22c1.6,0.25,3.16,0.36,4.69,0.36
			c-2.31,1.38-4.09,3.71-4.78,6.68c-1.92,8.19,3.12,14.18,13.82,16.43c17.4,3.66,31.91,1.56,44.38-6.42l1.25-0.79L619.37,451.81z
			 M338.11,439.23c-0.86-0.82-1.34-2.23-1.34-3.98c-0.04-7.15,6.12-22.24,13.86-30.26c3.06-3.17,6.04-4.88,8.66-4.97
			c0.96-0.03,1.76,0.25,2.38,0.84c0.85,0.82,1.32,2.23,1.33,3.98c0.07,11.12-12.53,34.91-22.53,35.23
			C339.52,440.1,338.71,439.82,338.11,439.23z M506.81,408.43c-0.81,6.48-8.29,14.11-20.62,16.07c3-6.91,13.02-19.16,18.63-18.59
			c0.81,0.08,1.37,0.32,1.67,0.71C506.81,407.01,506.92,407.62,506.81,408.43z M579.8,432.6c0.37,2.47,1.5,5,2.63,7.46
			c1.55,3.43,3.03,6.66,2.38,9.42c-0.6,2.57-1.97,4.64-3.85,5.85c-1.86,1.2-4.2,1.53-6.79,0.99c-2.15-0.45-3.67-1.36-4.52-2.72
			c-0.86-1.35-1.03-3.14-0.53-5.3c0.09-0.39,0.25-0.72,0.43-1.03c0.48,0.21,1.02,0.38,1.7,0.52c2.76,0.58,6.04-0.83,6.94-4.65
			c0.42-1.79,0.2-3.44-0.63-4.79c-0.85-1.35-2.32-2.32-4.15-2.78C575.65,434.9,577.78,433.91,579.8,432.6z"/>
	</g>
	<path class="st0" d="M590.11,493.62c0.29-10.5-5.26-11.88-5.5-11.94c-60.14-12.88-124.1-19.47-190.11-19.6
		c-66.28-0.12-130.85,6.28-191.87,19.04c-1.13,0.44-8.66,3.7-7.91,11.5c1.14,11.67,5.7,12.61,6.29,12.69
		c61.35-12.82,126.21-19.27,192.83-19.14c66.06,0.12,130.08,6.71,190.3,19.56C585.46,505.2,589.86,502.79,590.11,493.62z"/>
	<g class="st2">
		<path class="st3" d="M577.18,492.72c-0.21,1.07-1.28,1.82-2.36,1.63c-1.06-0.19-1.78-1.24-1.57-2.31
			c0.21-1.07,1.28-1.82,2.36-1.63C576.68,490.59,577.4,491.65,577.18,492.72z"/>
		<path class="st3" d="M211.07,492.03c-0.22,1.07-1.29,1.82-2.36,1.63c-1.07-0.18-1.79-1.24-1.57-2.31
			c0.21-1.07,1.29-1.82,2.35-1.63C210.56,489.91,211.27,490.97,211.07,492.03z"/>
		<g class="st4">
			<path class="st1" d="M230.9,494.19c0.03,0.25,0.12,0.42,0.73,0.36l0.05,0.32l-4.93,0.84l-0.05-0.31c0.59-0.16,0.64-0.35,0.6-0.59
				l-1.8-12.33c-0.04-0.24-0.13-0.41-0.75-0.36l-0.04-0.32l8.57-1.46c3.01-0.52,4.88,1.29,5.22,3.64c0.35,2.36-0.91,4.66-3.93,5.17
				l-4.31,0.74L230.9,494.19z M229.85,487.07l3.64-0.62c1.29-0.22,1.87-0.8,1.71-1.92c-0.15-1.03-0.86-1.35-2.15-1.12l-3.65,0.62
				L229.85,487.07z"/>
			<path class="st1" d="M250.33,488.56l8.26-1.22c0.28-0.04,0.35-0.18,0.34-0.8l0.29-0.04l0.58,4.68l-0.29,0.04
				c-0.15-0.55-0.26-0.67-0.52-0.62l-12.54,1.85l-0.04-0.32c0.6-0.14,0.64-0.34,0.62-0.58l-1.52-12.38
				c-0.03-0.24-0.12-0.42-0.74-0.38l-0.03-0.32l4.94-0.73l0.04,0.32c-0.59,0.14-0.64,0.34-0.61,0.58L250.33,488.56z"/>
			<path class="st1" d="M275.37,475.06c-0.02-0.24-0.11-0.42-0.72-0.4l-0.03-0.32l4.96-0.62l0.03,0.32
				c-0.59,0.13-0.65,0.32-0.62,0.57l0.7,7.14c0.46,4.69-2.34,6.61-6.03,7.07c-3.68,0.46-6.79-0.72-7.26-5.41l-0.7-7.15
				c-0.02-0.24-0.11-0.42-0.72-0.39l-0.03-0.32l4.96-0.62l0.03,0.32c-0.6,0.13-0.65,0.32-0.62,0.57l0.7,7.14
				c0.2,2.05,1.4,2.74,3.32,2.5c1.92-0.24,2.95-1.2,2.74-3.26L275.37,475.06z"/>
			<path class="st1" d="M300.16,485.75l-0.03-0.33c0.6-0.11,0.66-0.31,0.64-0.55l-0.74-9.83L300,475l-3.54,10.79l-5.01-10.05
				l-0.05,0.01l0.73,9.99c0.03,0.24,0.11,0.42,0.72,0.41l0.02,0.32l-4.25,0.42l-0.02-0.32c0.6-0.11,0.66-0.31,0.64-0.54l-0.92-12.46
				c-0.01-0.25-0.1-0.42-0.71-0.42l-0.02-0.31l6.29-0.63l0.03,0.32c-0.38,0.06-0.56,0.22-0.54,0.54c0.02,0.18,2.4,4.82,2.69,5.52
				c0.91-2.76,2.01-5.64,1.99-5.99c-0.01-0.32-0.22-0.44-0.6-0.42l-0.02-0.32l6.53-0.65l0.02,0.33c-0.6,0.11-0.65,0.31-0.64,0.55
				l0.92,12.45c0.02,0.24,0.11,0.42,0.71,0.41l0.01,0.32L300.16,485.75z"/>
			<path class="st1" d="M312.5,471.3c0-0.24-0.09-0.42-0.69-0.43l-0.02-0.32l9.21-0.68c2.61-0.19,4.57,0.74,4.7,3.39
				c0.08,1.61-0.83,2.67-2.17,3.09l0,0.05c1.65,0.36,2.88,1.24,2.97,3.22c0.11,2.15-1.25,4.07-4.68,4.33l-9.33,0.69l-0.02-0.32
				c0.61-0.1,0.67-0.29,0.66-0.53L312.5,471.3z M316.35,475.53l3.29-0.24c2.08-0.15,2.6-0.36,2.55-1.43
				c-0.05-1.07-0.59-1.19-2.67-1.04l-3.29,0.25L316.35,475.53z M316.65,481.48l4.11-0.31c1.7-0.13,2.35-0.6,2.29-1.78
				c-0.06-1.18-0.75-1.56-2.45-1.44l-4.12,0.31L316.65,481.48z"/>
			<path class="st1" d="M334.09,483.14l-0.01-0.32c0.61-0.09,0.68-0.28,0.66-0.52l-0.4-12.5c0-0.24-0.08-0.43-0.69-0.45l0-0.32
				l4.98-0.28l0.01,0.32c-0.6,0.09-0.67,0.28-0.67,0.52l0.4,12.5c0,0.24,0.09,0.42,0.68,0.45l0.02,0.32L334.09,483.14z"/>
			<path class="st1" d="M347.53,469.09c0-0.24-0.08-0.43-0.68-0.46l0-0.32l5.83-0.23l0,0.32c-0.56,0.04-0.68,0.21-0.67,0.38
				c0.01,0.3,4.26,5.08,5.99,7.07l-0.09-7.16c-0.01-0.33-0.21-0.45-0.52-0.46l0-0.32l4.43-0.17l0,0.32
				c-0.6,0.08-0.67,0.27-0.67,0.51l0.17,12.51c-0.01,0.24,0.07,0.42,0.68,0.46l0,0.32l-4.6,0.18l0-0.33
				c0.43-0.02,0.55-0.13,0.55-0.31c0-0.35-0.62-0.68-7.11-8.35l0.11,8.43c0,0.24,0.08,0.43,0.68,0.46l0,0.32l-4.6,0.18l0-0.32
				c0.61-0.08,0.67-0.27,0.67-0.51L347.53,469.09z"/>
			<path class="st1" d="M380.34,476.35l-3.12,0.05c-0.26,0-0.35,0.22-0.37,0.54l-0.29,0l0.04-3.76l0.29,0
				c0.02,0.35,0.08,0.48,0.35,0.47l7.15-0.11l-0.01,0.32c-0.29,0.03-0.38,0.16-0.39,0.46l-0.04,4.46c-0.01,0.24,0.04,0.45,0.28,0.45
				l0.12,0l0,0.32c-2.19,1.38-4.82,2.1-7.81,2.14c-4.05,0.07-7.84-2.23-7.8-7.09c0.05-4.87,3.89-7.29,7.94-7.35
				c1.6-0.02,2.29,0.1,3.94,0.58c0.8,0.23,1.57,0.67,1.76,0.67c0.15,0,0.27-0.11,0.34-0.22l0.29,0.1l-1.61,3.57l-0.28-0.18
				c0.01-0.06,0.04-0.16,0.04-0.3c0.01-0.51-2.38-1.25-4.39-1.22c-2.29,0.03-4.42,1.44-4.44,4.34c-0.03,2.9,2.5,4.12,4.61,4.09
				c1.34-0.03,2.39-0.23,3.39-0.57L380.34,476.35z"/>
			<path class="st1" d="M414.47,475.75l-0.19-0.01c-0.05-0.24-0.16-0.38-0.52-0.38c-0.63-0.01-1.54,1.45-1.78,2.06
				c0.32,0.38,1.17,0.93,1.65,0.94c0.22,0,0.39-0.13,0.45-0.37l0.29,0l-0.15,3.76c-1.53,0-3.32-0.4-4.34-1.7
				c-1.57,1.24-3.12,1.59-5.01,1.57c-2.4-0.04-5.21-1.42-5.08-4.54c0.08-2.09,1.51-3.5,3.21-4.15c-0.64-0.57-1.13-1.35-1.09-2.3
				c0.11-2.85,2.65-3.49,4.69-3.46c2.03,0.03,4.37,0.71,4.26,3.47c-0.04,1.4-1.13,2.32-2.13,2.93c0.52,0.52,0.96,1.19,1.4,1.82
				c1.17-1.79,2.67-3.4,4.53-4.29L414.47,475.75z M408.33,477.34c-0.43-1.54-1.29-2.39-2.59-2.41c-1.2-0.02-2.16,0.67-2.2,1.85
				c-0.04,1.18,0.85,1.89,2.05,1.91C406.53,478.7,407.72,478.16,408.33,477.34z M404.76,470.78c0.04,1.08,0.87,1.57,1.61,1.58
				c0.76,0.01,1.62-0.46,1.73-1.54c-0.04-1.06-0.85-1.56-1.61-1.57C405.75,469.23,404.88,469.71,404.76,470.78z"/>
			<path class="st1" d="M443.96,481.9c-0.01,0.25,0.05,0.43,0.65,0.51l-0.03,0.32l-4.97-0.23l0.02-0.32
				c0.61-0.02,0.69-0.21,0.71-0.45l0.34-4.97l-6.27-0.29l-0.37,4.96c-0.02,0.24,0.05,0.43,0.64,0.52l-0.02,0.32l-4.98-0.22
				l0.03-0.32c0.61-0.03,0.69-0.21,0.71-0.45l0.89-12.51c0.01-0.24-0.04-0.43-0.64-0.51l0.02-0.33l4.98,0.23l-0.02,0.32
				c-0.61,0.03-0.69,0.21-0.71,0.45l-0.3,4.27l6.28,0.28l0.3-4.27c0.02-0.24-0.04-0.43-0.64-0.51l0.02-0.33l4.98,0.23l-0.01,0.32
				c-0.61,0.03-0.7,0.22-0.72,0.45L443.96,481.9z"/>
			<path class="st1" d="M462.5,478.68l-0.31-0.02c-0.04-0.36-0.18-0.64-0.66-0.68l-4.48-0.3l-0.24,2.5l7.73,0.52
				c0.27,0.01,0.39-0.11,0.52-0.77l0.29,0.02l-0.43,4.67l-0.29-0.03c-0.03-0.45-0.12-0.6-0.38-0.62l-12.03-0.81l0.03-0.32
				c0.61-0.01,0.7-0.19,0.72-0.43l1.16-12.49c0.01-0.24-0.02-0.43-0.63-0.53l0.03-0.32l12.03,0.81c0.26,0.01,0.37-0.11,0.5-0.72
				l0.29,0.02l-0.43,4.66l-0.29-0.02c-0.02-0.62-0.1-0.76-0.37-0.78l-7.73-0.52l-0.21,2.22l4.48,0.31c0.49,0.03,0.68-0.23,0.78-0.57
				l0.29,0.02L462.5,478.68z"/>
			<path class="st1" d="M476.01,481.85c-0.85,1.89-1.04,2.23-1.05,2.39c-0.02,0.16,0.06,0.28,0.4,0.31l-0.03,0.32l-4.25-0.37
				l0.04-0.32c0.34-0.06,0.5-0.15,0.69-0.56c0.29-0.6,5.69-12.01,5.71-12.17c0.02-0.19-0.23-0.27-0.45-0.31l0.04-0.32l6.27,0.56
				l-0.04,0.32c-0.28,0.01-0.44,0.05-0.47,0.32c-0.04,0.21,2.01,8.47,3.03,12.67c0.18,0.66,0.3,0.83,0.59,0.86l-0.05,0.32
				l-4.73-0.42l0.04-0.32c0.34,0,0.48-0.12,0.49-0.28c0.02-0.1-0.48-2.12-0.53-2.48L476.01,481.85z M476.86,479.76l4.47,0.4
				l-1.6-6.57L476.86,479.76z"/>
			<path class="st1" d="M494.26,486.67l0.05-0.32c0.6,0.01,0.7-0.16,0.74-0.41l1.33-9.98l-4.12-0.45c-0.27-0.03-0.38,0.1-0.53,0.7
				l-0.29-0.03l0.63-4.76l0.29,0.04c-0.01,0.62,0.07,0.76,0.33,0.79l11.84,1.28c0.26,0.03,0.39-0.09,0.54-0.7l0.29,0.03l-0.64,4.75
				l-0.29-0.03c0-0.62-0.07-0.77-0.33-0.79l-4.13-0.44l-1.34,9.97c-0.03,0.25,0.02,0.44,0.61,0.56l-0.04,0.32L494.26,486.67z"/>
			<path class="st1" d="M510.03,488.48l0.04-0.31c0.6,0.02,0.71-0.17,0.74-0.4l1.89-12.42c0.04-0.24-0.01-0.43-0.6-0.56l0.05-0.32
				l4.92,0.62l-0.04,0.32c-0.6-0.02-0.71,0.16-0.74,0.4l-1.88,12.42c-0.03,0.24,0.01,0.44,0.59,0.57l-0.04,0.32L510.03,488.48z"/>
			<path class="st1" d="M525.71,477.03c0.06-0.24,0.01-0.43-0.58-0.57l0.06-0.32l5.74,0.85l-0.06,0.31
				c-0.54-0.05-0.7,0.09-0.73,0.25c-0.05,0.3,3.24,5.79,4.57,8.09l1.21-7.11c0.05-0.31-0.11-0.47-0.42-0.55l0.04-0.32l4.37,0.65
				l-0.06,0.31c-0.6-0.03-0.71,0.14-0.75,0.39l-2.12,12.39c-0.04,0.24,0.01,0.44,0.58,0.57l-0.05,0.32l-4.54-0.66l0.06-0.32
				c0.42,0.07,0.56-0.02,0.6-0.21c0.06-0.34-0.48-0.78-5.44-9.54l-1.43,8.35c-0.04,0.24,0,0.43,0.6,0.58l-0.06,0.32l-4.53-0.67
				l0.05-0.31c0.61,0.03,0.72-0.14,0.76-0.38L525.71,477.03z"/>
			<path class="st1" d="M556.44,490.21l-3.06-0.53c-0.27-0.04-0.38,0.16-0.47,0.47l-0.29-0.04l0.74-3.7l0.29,0.04
				c-0.05,0.35,0,0.5,0.27,0.54l7,1.2l-0.07,0.32c-0.28-0.02-0.41,0.09-0.47,0.38l-0.86,4.39c-0.06,0.24-0.05,0.46,0.19,0.5
				l0.13,0.02l-0.07,0.32c-2.4,0.95-5.12,1.18-8.03,0.67c-3.97-0.68-7.25-3.65-6.31-8.45c0.94-4.79,5.15-6.47,9.12-5.79
				c1.57,0.26,2.23,0.52,3.74,1.3c0.74,0.38,1.4,0.95,1.59,0.99c0.14,0.02,0.28-0.06,0.38-0.15l0.26,0.15l-2.23,3.22l-0.25-0.23
				c0.03-0.05,0.08-0.15,0.11-0.29c0.1-0.5-2.1-1.68-4.08-2.01c-2.25-0.39-4.57,0.6-5.14,3.46c-0.57,2.86,1.68,4.53,3.75,4.89
				c1.3,0.22,2.38,0.22,3.42,0.07L556.44,490.21z"/>
		</g>
	</g>
	<path class="st1" d="M435.15,491.5c-0.51,0.02-0.96,0.05-1.51,0.05c-2.05,0-3.86-0.12-5.51-0.32c-4.95-0.18-9.91-0.34-14.89-0.45
		c4.89,2.48,10.25,4.86,20.29,4.88c7.83,0.01,12.89-1.49,17.17-3.34C445.53,492,440.34,491.73,435.15,491.5z"/>
	<path class="st1" d="M356.81,491.18c-1.46,0.14-3.02,0.21-4.77,0.21c-0.22,0-0.41-0.02-0.63-0.02c-5.47,0.22-10.92,0.5-16.34,0.81
		c4.13,1.83,9.09,3.3,16.86,3.31c9.99,0.02,15.42-2.33,20.42-4.77C367.15,490.82,361.99,491,356.81,491.18z"/>
	<path d="M194.71,492.62c-0.8-8.24,7.68-11.42,8.04-11.55l-0.29,0.09c61.08-12.78,125.69-19.2,192.03-19.07
		c66.02,0.12,129.97,6.71,190.11,19.6c0.24,0.05,5.79,1.44,5.5,11.94c-0.29,10.58-6.11,12.16-6.35,12.22l0.95-0.01
		c-60.38-12.93-124.6-19.55-190.88-19.67c-66.7-0.13-131.65,6.33-193.07,19.19l0.3-0.03C201.09,505.31,195.93,505.12,194.71,492.62z
		 M201.55,509.6c61.12-12.8,125.77-19.22,192.16-19.1c65.97,0.12,129.88,6.71,189.98,19.58l0.46,0.1l0.45-0.1
		c0.39-0.09,9.46-2.22,9.85-16.44c0.39-14.28-8.51-16.13-8.89-16.2c-60.37-12.94-124.63-19.56-190.95-19.68
		c-66.64-0.13-131.56,6.32-192.94,19.16l-0.15,0.03l-0.15,0.05c-4.19,1.49-11.9,6.79-10.98,16.15
		c1.65,16.89,10.46,16.52,10.84,16.49l0.16-0.01L201.55,509.6z"/>
</g>
<g>
	<g>
		<path d="M209.22,497.35c0.07,0.06,0.24,0.09,0.51,0.07c0,0.12,0,0.18,0,0.3c-1.79,0.34-2.69,0.52-4.48,0.87c0-0.12,0-0.18,0-0.3
			c0.28-0.09,0.45-0.18,0.51-0.26c0.07-0.09,0.1-0.19,0.1-0.31c0-4.64,0-6.96,0-11.6c0-0.12-0.03-0.21-0.1-0.27
			c-0.07-0.06-0.24-0.08-0.51-0.06c0-0.12,0-0.18,0-0.3c3.12-0.61,4.68-0.91,7.8-1.49c0.68-0.13,1.29-0.12,1.81,0
			c0.52,0.13,0.96,0.35,1.31,0.67c0.35,0.32,0.61,0.71,0.79,1.19c0.17,0.47,0.26,0.98,0.26,1.53c0,0.55-0.09,1.09-0.26,1.63
			c-0.17,0.54-0.44,1.03-0.79,1.46c-0.35,0.44-0.78,0.82-1.31,1.14c-0.52,0.32-1.13,0.55-1.81,0.67c-1.57,0.29-2.35,0.44-3.92,0.74
			c0,1.62,0,2.43,0,4.06C209.12,497.2,209.15,497.29,209.22,497.35z M212.43,489.75c0.61-0.11,1.06-0.32,1.34-0.6
			c0.28-0.28,0.43-0.69,0.43-1.22c0-0.48-0.14-0.8-0.43-0.97c-0.28-0.16-0.73-0.19-1.34-0.07c-1.33,0.25-1.99,0.38-3.31,0.63
			c0,1.15,0,1.72,0,2.86C210.44,490.13,211.11,490,212.43,489.75z"/>
		<path d="M231.18,490.83c0.12-0.02,0.2-0.08,0.26-0.18c0.06-0.1,0.1-0.29,0.13-0.58c0.1-0.02,0.16-0.03,0.26-0.04
			c0,1.72,0,2.59,0,4.31c-0.1,0.02-0.16,0.02-0.26,0.04c-0.03-0.26-0.07-0.42-0.13-0.46c-0.06-0.05-0.15-0.06-0.26-0.04
			c-4.56,0.76-6.85,1.16-11.4,1.98c0-0.12,0-0.18,0-0.3c0.28-0.08,0.45-0.17,0.51-0.25c0.07-0.09,0.1-0.19,0.1-0.31
			c0-4.64,0-6.96,0-11.6c0-0.12-0.03-0.2-0.1-0.27c-0.07-0.06-0.24-0.08-0.51-0.07c0-0.12,0-0.18,0-0.3c1.8-0.32,2.7-0.48,4.5-0.8
			c0,0.12,0,0.18,0,0.3c-0.28,0.08-0.45,0.17-0.51,0.25c-0.07,0.09-0.1,0.19-0.1,0.3c0,3.73,0,5.59,0,9.32
			C226.67,491.6,228.17,491.34,231.18,490.83z"/>
		<path d="M243.75,479.21c-0.07-0.06-0.24-0.09-0.51-0.08c0-0.12,0-0.18,0-0.3c1.8-0.28,2.71-0.42,4.51-0.69c0,0.12,0,0.18,0,0.3
			c-0.28,0.08-0.45,0.15-0.51,0.24c-0.07,0.09-0.1,0.19-0.1,0.3c0,2.67,0,4.01,0,6.68c0,1.1-0.16,2.04-0.47,2.83
			c-0.31,0.79-0.75,1.46-1.29,1.99c-0.55,0.53-1.19,0.94-1.93,1.23c-0.74,0.29-1.52,0.5-2.35,0.63c-0.83,0.13-1.62,0.17-2.35,0.11
			c-0.74-0.06-1.38-0.27-1.92-0.62c-0.55-0.36-0.98-0.89-1.29-1.58c-0.31-0.7-0.47-1.59-0.47-2.69c0-2.67,0-4,0-6.67
			c0-0.12-0.03-0.21-0.1-0.27c-0.07-0.06-0.24-0.09-0.51-0.08c0-0.12,0-0.18,0-0.3c1.8-0.3,2.7-0.44,4.51-0.73c0,0.12,0,0.18,0,0.3
			c-0.28,0.08-0.45,0.16-0.51,0.24c-0.07,0.08-0.1,0.19-0.1,0.3c0,2.67,0,4,0,6.67c0,0.96,0.24,1.62,0.72,1.95
			c0.48,0.34,1.16,0.44,2.03,0.3c0.88-0.14,1.56-0.45,2.04-0.94c0.48-0.49,0.72-1.22,0.72-2.18c0-2.67,0-4,0-6.67
			C243.85,479.37,243.81,479.28,243.75,479.21z"/>
		<path d="M261.78,488.95c0.28-0.07,0.45-0.15,0.52-0.23c0.07-0.08,0.1-0.18,0.1-0.3c0-3.67,0-5.5,0-9.16
			c-0.02-0.02-0.03-0.03-0.04-0.04c-1.56,4.08-2.34,6.12-3.91,10.2c-1.54-3.69-2.32-5.54-3.86-9.22c-0.02,0-0.03,0-0.04,0
			c0,3.73,0,5.59,0,9.31c0,0.12,0.03,0.21,0.1,0.27c0.07,0.07,0.24,0.09,0.51,0.09c0,0.12,0,0.18,0,0.3
			c-1.54,0.22-2.31,0.33-3.86,0.56c0-0.12,0-0.18,0-0.3c0.28-0.07,0.45-0.15,0.52-0.24c0.07-0.08,0.1-0.18,0.1-0.3
			c0-4.64,0-6.96,0-11.61c0-0.12-0.03-0.21-0.1-0.27c-0.07-0.07-0.24-0.09-0.52-0.08c0-0.12,0-0.18,0-0.3
			c2.29-0.33,3.43-0.5,5.72-0.82c0,0.12,0,0.18,0,0.3c-0.35,0.07-0.53,0.24-0.53,0.52c0,0.02,0.04,0.14,0.13,0.38
			c0.09,0.24,0.2,0.53,0.34,0.87c0.14,0.35,0.29,0.72,0.46,1.12c0.17,0.4,0.33,0.79,0.48,1.15c0.15,0.37,0.29,0.7,0.41,0.98
			c0.12,0.28,0.24,0.56,0.24,0.56c0.05,0,0.5-1.31,0.77-1.95c0.26-0.63,0.5-1.21,0.71-1.74c0.21-0.53,0.38-0.97,0.52-1.32
			c0.13-0.35,0.2-0.56,0.2-0.65c0-0.28-0.18-0.41-0.53-0.38c0-0.12,0-0.18,0-0.3c2.38-0.32,3.57-0.49,5.95-0.79c0,0.12,0,0.18,0,0.3
			c-0.28,0.07-0.45,0.15-0.52,0.23c-0.07,0.08-0.1,0.19-0.1,0.3c0,4.64,0,6.96,0,11.6c0,0.12,0.03,0.21,0.1,0.28
			c0.07,0.07,0.24,0.1,0.52,0.1c0,0.12,0,0.18,0,0.3c-1.76,0.23-2.63,0.34-4.39,0.58C261.78,489.13,261.78,489.07,261.78,488.95z"/>
		<path d="M270.09,475.53c-0.07-0.07-0.24-0.1-0.52-0.1c0-0.12,0-0.18,0-0.3c3.35-0.42,5.02-0.63,8.37-1.03
			c0.6-0.07,1.15-0.06,1.65,0.01c0.5,0.07,0.93,0.23,1.3,0.46c0.37,0.23,0.65,0.56,0.86,0.97c0.21,0.42,0.31,0.93,0.31,1.54
			c0,0.75-0.2,1.37-0.59,1.87c-0.4,0.5-0.9,0.86-1.52,1.08c0,0.02,0,0.03,0,0.05c0.75,0.15,1.36,0.43,1.84,0.86
			c0.48,0.43,0.72,1.11,0.72,2.04c0,0.5-0.08,0.98-0.25,1.45c-0.17,0.47-0.43,0.89-0.79,1.26c-0.36,0.37-0.82,0.69-1.39,0.96
			c-0.57,0.26-1.23,0.44-2.01,0.53c-3.4,0.4-5.09,0.61-8.48,1.04c0-0.12,0-0.18,0-0.3c0.28-0.07,0.45-0.15,0.52-0.23
			c0.07-0.08,0.1-0.18,0.1-0.3c0-4.64,0-6.96,0-11.6C270.19,475.69,270.16,475.59,270.09,475.53z M276.48,479.21
			c0.47-0.06,0.86-0.11,1.17-0.17c0.31-0.06,0.55-0.15,0.72-0.25c0.18-0.1,0.3-0.24,0.37-0.39c0.07-0.16,0.11-0.36,0.11-0.61
			c0-0.25-0.04-0.45-0.11-0.59c-0.07-0.14-0.2-0.24-0.37-0.3s-0.42-0.09-0.72-0.08c-0.31,0.01-0.7,0.05-1.17,0.1
			c-1.2,0.14-1.79,0.21-2.99,0.36c0,0.92,0,1.37,0,2.29C274.68,479.43,275.28,479.36,276.48,479.21z M277.22,484.65
			c0.79-0.09,1.35-0.27,1.67-0.53c0.32-0.26,0.48-0.66,0.48-1.21c0-0.55-0.16-0.91-0.48-1.1c-0.32-0.19-0.88-0.23-1.67-0.14
			c-1.5,0.18-2.24,0.27-3.74,0.45c0,1.2,0,1.79,0,2.99C274.98,484.92,275.73,484.83,277.22,484.65z"/>
		<path d="M285.78,486.02c0.28-0.06,0.45-0.14,0.52-0.22c0.07-0.08,0.1-0.18,0.1-0.3c0-4.64,0-6.96,0-11.61
			c0-0.12-0.03-0.21-0.1-0.28c-0.07-0.07-0.24-0.1-0.52-0.1c0-0.12,0-0.18,0-0.3c1.81-0.2,2.72-0.3,4.53-0.49c0,0.12,0,0.18,0,0.3
			c-0.28,0.06-0.45,0.13-0.52,0.21c-0.07,0.08-0.1,0.18-0.1,0.3c0,4.64,0,6.96,0,11.61c0,0.12,0.03,0.21,0.1,0.28
			c0.07,0.07,0.24,0.1,0.52,0.11c0,0.12,0,0.18,0,0.3c-1.81,0.19-2.72,0.29-4.53,0.49C285.78,486.2,285.78,486.14,285.78,486.02z"/>
		<path d="M294.62,472.75c-0.07-0.07-0.24-0.1-0.52-0.11c0-0.12,0-0.18,0-0.3c2.12-0.21,3.18-0.32,5.31-0.52c0,0.12,0,0.18,0,0.3
			c-0.25,0.04-0.42,0.09-0.5,0.16c-0.08,0.07-0.12,0.14-0.12,0.22c0,0.03,0.09,0.17,0.29,0.42c0.19,0.25,0.44,0.55,0.75,0.92
			c0.31,0.37,0.66,0.78,1.05,1.23c0.39,0.45,0.78,0.91,1.18,1.36c0.4,0.45,0.78,0.88,1.15,1.29c0.37,0.41,0.68,0.76,0.95,1.05
			c0-2.66,0-3.99,0-6.65c0-0.28-0.15-0.42-0.46-0.4c0-0.12,0-0.18,0-0.3c1.61-0.15,2.42-0.22,4.03-0.36c0,0.12,0,0.18,0,0.3
			c-0.28,0.06-0.45,0.12-0.52,0.21c-0.07,0.08-0.1,0.18-0.1,0.3c0,4.64,0,6.96,0,11.6c0,0.12,0.03,0.21,0.1,0.28
			c0.07,0.07,0.24,0.11,0.52,0.12c0,0.12,0,0.18,0,0.3c-1.68,0.15-2.51,0.22-4.19,0.37c0-0.12,0-0.18,0-0.3
			c0.21-0.02,0.34-0.06,0.41-0.12c0.07-0.06,0.1-0.12,0.1-0.21c0-0.05-0.02-0.11-0.06-0.18c-0.04-0.07-0.14-0.19-0.29-0.36
			c-0.15-0.17-0.37-0.41-0.65-0.72c-0.29-0.31-0.66-0.73-1.13-1.26c-0.47-0.53-1.05-1.19-1.74-1.98c-0.69-0.79-1.52-1.75-2.49-2.89
			c0,3.13,0,4.69,0,7.82c0,0.12,0.03,0.21,0.1,0.28c0.07,0.07,0.24,0.11,0.52,0.11c0,0.12,0,0.18,0,0.3
			c-1.67,0.16-2.51,0.24-4.18,0.41c0-0.12,0-0.18,0-0.3c0.28-0.06,0.45-0.13,0.52-0.21c0.07-0.08,0.1-0.18,0.1-0.3
			c0-4.64,0-6.96,0-11.6C294.72,472.91,294.68,472.82,294.62,472.75z"/>
		<path d="M318.13,478.56c-0.12,0.01-0.2,0.06-0.24,0.15c-0.04,0.1-0.07,0.22-0.09,0.37c-0.11,0.01-0.16,0.01-0.26,0.02
			c0-1.4,0-2.09,0-3.49c0.11-0.01,0.16-0.01,0.27-0.02c0.03,0.3,0.14,0.44,0.33,0.42c2.6-0.2,3.91-0.29,6.51-0.47
			c0,0.12,0,0.18,0,0.3c-0.24,0.03-0.35,0.18-0.35,0.45c0,1.65,0,2.48,0,4.13c0,0.12,0.01,0.22,0.04,0.3
			c0.03,0.08,0.1,0.12,0.22,0.11c0.04,0,0.07,0,0.11-0.01c0,0.12,0,0.18,0,0.3c-2,1.33-4.37,2.1-7.1,2.31
			c-0.93,0.07-1.82,0.01-2.68-0.18c-0.86-0.19-1.62-0.53-2.28-1.03c-0.66-0.49-1.19-1.14-1.6-1.94s-0.61-1.77-0.61-2.9
			c0-1.13,0.2-2.13,0.61-3c0.4-0.87,0.94-1.61,1.6-2.22c0.66-0.61,1.42-1.09,2.28-1.43c0.86-0.34,1.75-0.55,2.68-0.62
			c0.37-0.03,0.69-0.04,0.97-0.05c0.28,0,0.55,0,0.82,0.04c0.27,0.03,0.54,0.07,0.82,0.13c0.28,0.05,0.61,0.12,0.99,0.21
			c0.37,0.09,0.7,0.2,1.01,0.34c0.31,0.14,0.51,0.2,0.6,0.2c0.12-0.01,0.22-0.08,0.31-0.22c0.11,0.03,0.16,0.05,0.27,0.08
			c-0.57,1.36-0.86,2.03-1.43,3.39c-0.11-0.06-0.16-0.1-0.27-0.16c0.03-0.1,0.04-0.19,0.04-0.27c0-0.12-0.13-0.24-0.38-0.36
			c-0.25-0.12-0.57-0.23-0.95-0.32c-0.38-0.09-0.81-0.15-1.29-0.2c-0.48-0.05-0.94-0.05-1.4-0.02c-0.53,0.04-1.03,0.16-1.51,0.35
			c-0.48,0.2-0.9,0.48-1.28,0.84s-0.67,0.79-0.89,1.3c-0.22,0.51-0.33,1.1-0.33,1.78c0,0.67,0.13,1.23,0.4,1.7
			c0.26,0.47,0.6,0.84,1,1.13c0.4,0.28,0.86,0.48,1.36,0.59c0.5,0.11,0.99,0.15,1.48,0.11c0.62-0.05,1.17-0.13,1.67-0.25
			c0.49-0.12,0.97-0.27,1.42-0.45c0-0.66,0-0.99,0-1.64C319.83,478.43,319.26,478.47,318.13,478.56z"/>
		<path class="st1" d="M336.56,472.52c0.35,0.15,0.66,0.36,0.93,0.65c0.26,0.28,0.47,0.62,0.63,1.01c0.15,0.39,0.23,0.81,0.23,1.26
			c0,0.45-0.08,0.88-0.23,1.28c-0.15,0.41-0.36,0.77-0.63,1.08c-0.27,0.31-0.57,0.57-0.93,0.76c-0.35,0.19-0.73,0.3-1.13,0.32
			c-0.4,0.02-0.77-0.04-1.12-0.19c-0.35-0.15-0.66-0.37-0.93-0.66c-0.26-0.28-0.47-0.62-0.62-1.01c-0.15-0.39-0.22-0.81-0.22-1.26
			c0-0.45,0.07-0.88,0.22-1.29c0.15-0.41,0.35-0.77,0.62-1.08c0.27-0.31,0.58-0.56,0.93-0.75c0.35-0.19,0.73-0.29,1.12-0.31
			C335.83,472.32,336.2,472.38,336.56,472.52z"/>
		<path d="M360.37,480.56c0.07,0.07,0.24,0.12,0.52,0.15c0,0.12,0,0.18,0,0.3c-1.82,0.06-2.73,0.09-4.55,0.16c0-0.12,0-0.18,0-0.3
			c0.28-0.04,0.45-0.11,0.52-0.18c0.07-0.08,0.1-0.17,0.1-0.29c0-1.84,0-2.76,0-4.61c-2.3,0.08-3.45,0.13-5.75,0.22
			c0,1.84,0,2.76,0,4.61c0,0.12,0.03,0.21,0.1,0.28c0.07,0.07,0.24,0.12,0.52,0.14c0,0.12,0,0.18,0,0.3
			c-1.82,0.08-2.73,0.12-4.55,0.2c0-0.12,0-0.18,0-0.3c0.28-0.04,0.45-0.11,0.52-0.19c0.07-0.08,0.1-0.18,0.1-0.29
			c0-4.64,0-6.96,0-11.6c0-0.12-0.03-0.21-0.1-0.28c-0.07-0.07-0.24-0.12-0.52-0.14c0-0.12,0-0.18,0-0.3
			c1.82-0.08,2.73-0.12,4.55-0.2c0,0.12,0,0.18,0,0.3c-0.28,0.04-0.45,0.1-0.52,0.18c-0.07,0.08-0.1,0.18-0.1,0.29
			c0,1.58,0,2.38,0,3.96c2.3-0.1,3.45-0.14,5.75-0.23c0-1.58,0-2.38,0-3.96c0-0.12-0.03-0.21-0.1-0.29
			c-0.07-0.07-0.24-0.12-0.52-0.14c0-0.12,0-0.18,0-0.3c1.82-0.07,2.73-0.1,4.55-0.16c0,0.12,0,0.18,0,0.3
			c-0.28,0.04-0.45,0.1-0.52,0.18c-0.07,0.08-0.1,0.17-0.1,0.29c0,4.64,0,6.96,0,11.6C360.26,480.39,360.3,480.48,360.37,480.56z"/>
		<path d="M373.18,475.9c-0.03-0.16-0.09-0.3-0.19-0.41c-0.1-0.11-0.25-0.16-0.47-0.15c-1.64,0.03-2.47,0.05-4.11,0.09
			c0,0.93,0,1.39,0,2.32c2.84-0.07,4.26-0.1,7.1-0.15c0.12,0,0.21-0.05,0.27-0.14c0.06-0.09,0.1-0.3,0.13-0.61
			c0.11,0,0.16,0,0.27-0.01c0,1.7,0,2.55,0,4.26c-0.11,0-0.16,0-0.27,0c-0.03-0.21-0.07-0.34-0.13-0.39
			c-0.06-0.05-0.15-0.07-0.27-0.07c-4.41,0.08-6.62,0.13-11.03,0.25c0-0.12,0-0.18,0-0.3c0.28-0.04,0.45-0.1,0.52-0.18
			c0.07-0.08,0.1-0.17,0.1-0.29c0-4.64,0-6.96,0-11.6c0-0.12-0.03-0.21-0.1-0.29c-0.07-0.07-0.24-0.12-0.52-0.14
			c0-0.12,0-0.18,0-0.3c4.41-0.13,6.62-0.18,11.03-0.25c0.12,0,0.21-0.05,0.27-0.14c0.06-0.09,0.1-0.28,0.13-0.56
			c0.11,0,0.16,0,0.27,0c0,1.73,0,2.6,0,4.33c-0.11,0-0.16,0-0.27,0c-0.03-0.28-0.07-0.47-0.13-0.56c-0.06-0.09-0.15-0.14-0.27-0.13
			c-2.84,0.05-4.26,0.08-7.1,0.15c0,0.83,0,1.24,0,2.07c1.65-0.04,2.47-0.06,4.11-0.09c0.22,0,0.38-0.06,0.48-0.17
			c0.1-0.11,0.16-0.25,0.19-0.41c0.11,0,0.16,0,0.26-0.01c0,1.55,0,2.33,0,3.89C373.34,475.9,373.28,475.9,373.18,475.9z"/>
		<path d="M381.84,480c0,0.08,0.03,0.15,0.08,0.19c0.05,0.04,0.16,0.06,0.32,0.06c0,0.12,0,0.18,0,0.3
			c-1.57,0.02-2.35,0.03-3.91,0.05c0-0.12,0-0.18,0-0.3c0.16-0.04,0.28-0.09,0.35-0.17c0.07-0.07,0.15-0.21,0.22-0.41
			c0.03-0.08,0.1-0.31,0.22-0.68c0.12-0.37,0.27-0.83,0.46-1.39c0.19-0.56,0.41-1.18,0.64-1.86c0.24-0.68,0.47-1.38,0.71-2.09
			c0.24-0.71,0.47-1.4,0.7-2.08c0.23-0.67,0.43-1.28,0.61-1.81c0.18-0.53,0.32-0.97,0.43-1.3c0.11-0.33,0.17-0.51,0.17-0.52
			c0-0.08-0.05-0.14-0.14-0.17c-0.1-0.03-0.2-0.05-0.3-0.07c0-0.12,0-0.18,0-0.3c2.31-0.02,3.46-0.03,5.77-0.04c0,0.12,0,0.18,0,0.3
			c-0.12,0.02-0.21,0.04-0.29,0.08c-0.07,0.03-0.11,0.12-0.11,0.25c0,0.03,0.07,0.25,0.21,0.65c0.14,0.4,0.32,0.92,0.54,1.55
			c0.22,0.64,0.48,1.36,0.76,2.16c0.29,0.8,0.59,1.63,0.9,2.46c0.31,0.84,0.61,1.66,0.9,2.45c0.29,0.8,0.55,1.52,0.79,2.14
			c0.11,0.3,0.22,0.5,0.3,0.6c0.08,0.1,0.19,0.15,0.32,0.15c0,0.12,0,0.18,0,0.3c-1.74,0-2.61,0-4.36,0.01c0-0.12,0-0.18,0-0.3
			c0.28-0.02,0.42-0.12,0.42-0.31c0-0.02-0.04-0.12-0.11-0.33c-0.07-0.21-0.15-0.44-0.24-0.7c-0.09-0.26-0.17-0.5-0.25-0.73
			c-0.08-0.23-0.13-0.39-0.14-0.47c-2.1,0.01-3.14,0.02-5.24,0.04c-0.15,0.45-0.27,0.82-0.35,1.1c-0.09,0.28-0.16,0.51-0.21,0.67
			c-0.05,0.17-0.09,0.29-0.11,0.36C381.86,479.91,381.84,479.97,381.84,480z M387.22,475.67c-0.86-2.37-1.29-3.55-2.14-5.91
			c-0.79,2.38-1.18,3.57-1.97,5.94C384.75,475.69,385.57,475.68,387.22,475.67z"/>
		<path d="M396.22,480.2c0.28-0.03,0.45-0.09,0.52-0.16c0.07-0.07,0.1-0.17,0.1-0.29c0-3.73,0-5.59,0-9.32
			c-1.52-0.01-2.28-0.01-3.8-0.01c-0.12,0-0.21,0.05-0.26,0.14c-0.06,0.09-0.1,0.28-0.13,0.56c-0.11,0-0.16,0-0.27,0
			c0-1.77,0-2.66,0-4.43c0.11,0,0.16,0,0.27,0c0.03,0.28,0.07,0.47,0.13,0.56c0.06,0.09,0.15,0.14,0.26,0.14
			c4.37,0,6.55,0.02,10.92,0.07c0.12,0,0.21-0.04,0.27-0.13c0.06-0.09,0.1-0.28,0.13-0.56c0.11,0,0.16,0,0.26,0
			c0,1.77,0,2.66,0,4.43c-0.11,0-0.16,0-0.26,0c-0.03-0.28-0.08-0.47-0.13-0.56c-0.06-0.09-0.15-0.14-0.26-0.14
			c-1.52-0.02-2.28-0.03-3.8-0.04c0,3.73,0,5.59,0,9.31c0,0.12,0.03,0.21,0.1,0.29c0.07,0.08,0.24,0.13,0.52,0.17
			c0,0.12,0,0.18,0,0.3c-1.82-0.02-2.73-0.02-4.56-0.03C396.22,480.38,396.22,480.32,396.22,480.2z"/>
		<path d="M407.3,480.31c0.28-0.03,0.45-0.08,0.52-0.15c0.07-0.07,0.1-0.17,0.1-0.29c0-4.64,0-6.96,0-11.6
			c0-0.12-0.03-0.21-0.1-0.29c-0.07-0.07-0.24-0.13-0.52-0.17c0-0.12,0-0.18,0-0.3c1.82,0.03,2.74,0.04,4.56,0.08
			c0,0.12,0,0.18,0,0.3c-0.28,0.03-0.45,0.08-0.52,0.15c-0.07,0.07-0.1,0.17-0.1,0.29c0,4.64,0,6.96,0,11.6
			c0,0.12,0.03,0.21,0.1,0.29c0.07,0.08,0.24,0.14,0.52,0.17c0,0.12,0,0.18,0,0.3c-1.82-0.04-2.73-0.05-4.56-0.08
			C407.3,480.49,407.3,480.43,407.3,480.31z"/>
		<path d="M416.18,468.14c-0.07-0.08-0.24-0.13-0.52-0.17c0-0.12,0-0.18,0-0.3c2.13,0.05,3.2,0.08,5.33,0.14c0,0.12,0,0.18,0,0.3
			c-0.25,0.01-0.42,0.04-0.5,0.09c-0.08,0.06-0.12,0.12-0.12,0.21c0,0.03,0.1,0.19,0.29,0.46c0.19,0.27,0.44,0.61,0.75,1.02
			c0.31,0.41,0.66,0.86,1.05,1.37c0.39,0.5,0.79,1,1.18,1.51c0.4,0.5,0.78,0.98,1.15,1.43c0.37,0.45,0.68,0.84,0.95,1.16
			c0-2.66,0-3.99,0-6.65c0-0.28-0.16-0.44-0.46-0.47c0-0.12,0-0.18,0-0.3c1.62,0.05,2.43,0.09,4.04,0.15c0,0.12,0,0.18,0,0.3
			c-0.28,0.02-0.45,0.07-0.52,0.14c-0.07,0.07-0.1,0.17-0.1,0.28c0,4.64,0,6.96,0,11.6c0,0.12,0.03,0.21,0.1,0.29
			c0.07,0.08,0.24,0.14,0.52,0.18c0,0.12,0,0.18,0,0.3c-1.68-0.06-2.52-0.09-4.2-0.15c0-0.12,0-0.18,0-0.3
			c0.21,0.01,0.34-0.01,0.41-0.06c0.07-0.05,0.1-0.11,0.1-0.2c0-0.05-0.02-0.11-0.07-0.19c-0.04-0.08-0.14-0.21-0.29-0.4
			c-0.15-0.19-0.36-0.46-0.65-0.81c-0.29-0.35-0.67-0.82-1.14-1.41c-0.47-0.59-1.05-1.32-1.75-2.19c-0.69-0.88-1.52-1.95-2.5-3.2
			c0,3.13,0,4.69,0,7.82c0,0.12,0.03,0.21,0.1,0.29c0.07,0.08,0.24,0.14,0.52,0.18c0,0.12,0,0.18,0,0.3
			c-1.68-0.05-2.52-0.07-4.2-0.11c0-0.12,0-0.18,0-0.3c0.28-0.03,0.45-0.08,0.52-0.15c0.07-0.07,0.1-0.17,0.1-0.29
			c0-4.64,0-6.96,0-11.6C416.28,468.32,416.24,468.22,416.18,468.14z"/>
		<path d="M439.75,476.89c-0.12-0.01-0.2,0.03-0.24,0.12c-0.04,0.09-0.07,0.21-0.09,0.36c-0.11-0.01-0.16-0.01-0.27-0.01
			c0-1.4,0-2.09,0-3.49c0.11,0,0.16,0,0.27,0.01c0.03,0.3,0.14,0.46,0.33,0.47c2.61,0.13,3.91,0.19,6.52,0.34c0,0.12,0,0.18,0,0.3
			c-0.24,0-0.35,0.14-0.35,0.4c0,1.65,0,2.48,0,4.13c0,0.12,0.02,0.22,0.05,0.3c0.03,0.08,0.1,0.13,0.22,0.14
			c0.04,0,0.07,0,0.11,0.01c0,0.12,0,0.18,0,0.3c-2,1.08-4.37,1.56-7.11,1.42c-0.93-0.04-1.82-0.21-2.68-0.51
			c-0.86-0.3-1.62-0.73-2.29-1.31c-0.66-0.58-1.2-1.29-1.6-2.15c-0.41-0.85-0.61-1.85-0.61-2.97s0.2-2.11,0.61-2.93
			c0.41-0.82,0.94-1.5,1.6-2.02c0.66-0.53,1.42-0.91,2.29-1.14c0.86-0.24,1.76-0.33,2.68-0.29c0.37,0.02,0.69,0.04,0.97,0.08
			s0.55,0.08,0.82,0.14c0.26,0.06,0.54,0.14,0.82,0.23c0.28,0.09,0.62,0.2,1,0.34c0.37,0.13,0.71,0.29,1.01,0.46
			c0.31,0.17,0.51,0.26,0.59,0.27c0.12,0.01,0.22-0.05,0.31-0.18c0.11,0.04,0.16,0.07,0.27,0.11c-0.57,1.28-0.86,1.93-1.44,3.21
			c-0.11-0.07-0.16-0.11-0.26-0.19c0.03-0.1,0.05-0.19,0.05-0.27c0-0.12-0.13-0.25-0.38-0.41c-0.25-0.15-0.57-0.3-0.95-0.44
			c-0.38-0.14-0.82-0.25-1.29-0.36c-0.48-0.11-0.94-0.17-1.4-0.19c-0.53-0.03-1.04,0.03-1.51,0.16c-0.48,0.13-0.91,0.36-1.28,0.68
			c-0.38,0.32-0.68,0.71-0.9,1.19c-0.22,0.48-0.33,1.06-0.33,1.74c0,0.67,0.13,1.25,0.4,1.75c0.27,0.5,0.6,0.92,1,1.25
			c0.41,0.33,0.86,0.59,1.36,0.76c0.5,0.17,0.99,0.27,1.48,0.3c0.62,0.03,1.17,0.02,1.67-0.04c0.49-0.06,0.97-0.15,1.42-0.27
			c0-0.66,0-0.99,0-1.64C441.46,476.97,440.89,476.94,439.75,476.89z"/>
		<path class="st1" d="M458.19,473.15c0.35,0.19,0.66,0.44,0.93,0.76c0.27,0.32,0.47,0.68,0.63,1.09c0.15,0.41,0.23,0.84,0.23,1.29
			c0,0.45-0.08,0.87-0.23,1.25c-0.15,0.39-0.36,0.72-0.63,1c-0.26,0.28-0.57,0.5-0.93,0.65c-0.35,0.15-0.73,0.21-1.12,0.19
			c-0.4-0.03-0.77-0.14-1.12-0.34c-0.35-0.2-0.66-0.45-0.93-0.77c-0.26-0.32-0.47-0.68-0.62-1.08c-0.15-0.41-0.22-0.84-0.22-1.29
			c0-0.45,0.07-0.87,0.22-1.26c0.15-0.39,0.35-0.72,0.62-1.01c0.26-0.28,0.58-0.49,0.93-0.64c0.35-0.14,0.73-0.2,1.12-0.17
			C457.46,472.85,457.84,472.96,458.19,473.15z"/>
		<path d="M477.58,479.43c-0.03-0.17-0.09-0.31-0.19-0.43c-0.1-0.12-0.26-0.18-0.48-0.2c-1.64-0.14-2.46-0.21-4.1-0.35
			c0,0.93,0,1.39,0,2.32c2.83,0.23,4.25,0.35,7.08,0.61c0.12,0.01,0.21-0.03,0.26-0.11c0.06-0.08,0.1-0.29,0.13-0.6
			c0.11,0.01,0.16,0.01,0.26,0.02c0,1.7,0,2.56,0,4.26c-0.11-0.01-0.16-0.02-0.26-0.02c-0.03-0.22-0.07-0.35-0.13-0.41
			c-0.06-0.05-0.15-0.09-0.27-0.1c-4.4-0.39-6.6-0.58-11-0.93c0-0.12,0-0.18,0-0.3c0.28-0.01,0.45-0.05,0.52-0.12
			c0.07-0.07,0.1-0.16,0.1-0.28c0-4.64,0-6.96,0-11.6c0-0.12-0.03-0.22-0.1-0.3c-0.07-0.08-0.24-0.14-0.52-0.2c0-0.12,0-0.18,0-0.3
			c4.4,0.35,6.6,0.53,11,0.92c0.12,0.01,0.21-0.03,0.27-0.11c0.06-0.08,0.1-0.27,0.13-0.55c0.11,0.01,0.16,0.01,0.26,0.02
			c0,1.73,0,2.6,0,4.33c-0.11-0.01-0.16-0.01-0.26-0.02c-0.03-0.28-0.07-0.48-0.13-0.57c-0.06-0.1-0.15-0.15-0.27-0.16
			c-2.83-0.25-4.25-0.37-7.08-0.61c0,0.83,0,1.24,0,2.07c1.64,0.13,2.46,0.2,4.1,0.35c0.22,0.02,0.38-0.02,0.47-0.12
			c0.1-0.1,0.16-0.23,0.19-0.39c0.11,0.01,0.16,0.01,0.26,0.02c0,1.55,0,2.33,0,3.89C477.74,479.45,477.68,479.44,477.58,479.43z"/>
		<path d="M495.09,482.87c0.12,0.01,0.2-0.03,0.26-0.11c0.06-0.08,0.1-0.27,0.13-0.55c0.11,0.01,0.16,0.02,0.26,0.03
			c0,1.72,0,2.59,0,4.31c-0.11-0.01-0.16-0.02-0.26-0.03c-0.03-0.27-0.07-0.44-0.13-0.5c-0.06-0.07-0.15-0.1-0.26-0.11
			c-4.6-0.49-6.9-0.72-11.5-1.15c0-0.12,0-0.18,0-0.3c0.28-0.01,0.45-0.05,0.52-0.11c0.07-0.07,0.1-0.16,0.1-0.28
			c0-4.64,0-6.96,0-11.6c0-0.12-0.03-0.21-0.1-0.3c-0.07-0.08-0.24-0.15-0.52-0.21c0-0.12,0-0.18,0-0.3
			c1.82,0.17,2.72,0.26,4.54,0.44c0,0.12,0,0.18,0,0.3c-0.28,0.01-0.45,0.04-0.52,0.11c-0.07,0.07-0.1,0.16-0.1,0.28
			c0,3.73,0,5.59,0,9.31C490.55,482.4,492.07,482.55,495.09,482.87z"/>
		<path d="M506.95,482.45c-0.03-0.17-0.09-0.31-0.19-0.43c-0.1-0.12-0.25-0.19-0.47-0.22c-1.64-0.19-2.45-0.29-4.09-0.47
			c0,0.93,0,1.39,0,2.31c2.82,0.32,4.24,0.49,7.06,0.83c0.12,0.01,0.21-0.02,0.26-0.11c0.06-0.08,0.1-0.28,0.13-0.6
			c0.11,0.01,0.16,0.02,0.26,0.03c0,1.7,0,2.56,0,4.26c-0.11-0.01-0.16-0.02-0.26-0.03c-0.03-0.22-0.07-0.36-0.13-0.41
			c-0.06-0.06-0.15-0.09-0.27-0.11c-4.39-0.53-6.58-0.78-10.98-1.26c0-0.12,0-0.18,0-0.3c0.28,0,0.45-0.04,0.52-0.11
			c0.07-0.07,0.1-0.16,0.1-0.28c0-4.64,0-6.96,0-11.6c0-0.12-0.03-0.22-0.1-0.3c-0.07-0.08-0.24-0.15-0.52-0.22c0-0.12,0-0.18,0-0.3
			c4.39,0.48,6.59,0.73,10.98,1.26c0.12,0.01,0.21-0.02,0.27-0.1c0.06-0.08,0.1-0.27,0.13-0.55c0.11,0.01,0.16,0.02,0.26,0.03
			c0,1.73,0,2.6,0,4.33c-0.11-0.01-0.16-0.02-0.26-0.03c-0.03-0.29-0.07-0.48-0.13-0.58c-0.06-0.1-0.15-0.15-0.27-0.17
			c-2.82-0.34-4.23-0.51-7.06-0.83c0,0.83,0,1.24,0,2.07c1.64,0.18,2.45,0.28,4.09,0.47c0.22,0.03,0.38-0.01,0.47-0.11
			c0.1-0.1,0.16-0.23,0.19-0.39c0.11,0.01,0.16,0.02,0.26,0.03c0,1.55,0,2.33,0,3.89C507.11,482.47,507.05,482.47,506.95,482.45z"/>
		<path d="M523.47,480.88c0.01-0.05,0.02-0.1,0.03-0.16c0.01-0.06,0.01-0.13,0.01-0.21c0-0.13-0.1-0.28-0.29-0.44
			c-0.2-0.16-0.46-0.32-0.79-0.47c-0.33-0.15-0.71-0.3-1.13-0.43c-0.42-0.13-0.87-0.23-1.34-0.29c-0.44-0.06-0.9-0.06-1.38-0.01
			c-0.48,0.05-0.93,0.19-1.33,0.4c-0.4,0.21-0.73,0.52-0.99,0.93c-0.26,0.41-0.39,0.93-0.39,1.56c0,0.63,0.13,1.18,0.39,1.65
			c0.26,0.47,0.59,0.87,0.99,1.19c0.4,0.32,0.85,0.57,1.33,0.74c0.48,0.18,0.94,0.3,1.38,0.36c0.19,0.02,0.49,0.03,0.9,0.01
			c0.41-0.02,0.82-0.07,1.23-0.15c0.41-0.08,0.77-0.18,1.08-0.3c0.31-0.12,0.47-0.28,0.47-0.46c0-0.08-0.01-0.15-0.04-0.21
			c-0.03-0.05-0.06-0.12-0.09-0.19c0.1-0.06,0.15-0.09,0.24-0.14c0.9,1.69,1.36,2.53,2.26,4.22c-0.11,0.06-0.16,0.08-0.26,0.14
			c-0.03-0.09-0.07-0.14-0.12-0.18c-0.05-0.03-0.11-0.06-0.19-0.07c-0.1-0.01-0.31,0.03-0.62,0.13c-0.31,0.1-0.71,0.2-1.2,0.29
			c-0.49,0.09-1.06,0.15-1.72,0.19c-0.66,0.04-1.4,0-2.22-0.11c-0.88-0.12-1.75-0.36-2.61-0.73c-0.86-0.37-1.64-0.88-2.33-1.52
			c-0.69-0.64-1.25-1.41-1.67-2.3c-0.43-0.89-0.64-1.89-0.64-3.01c0-1.11,0.21-2.06,0.64-2.85c0.42-0.79,0.98-1.41,1.67-1.88
			c0.69-0.47,1.46-0.79,2.33-0.96c0.86-0.17,1.74-0.2,2.61-0.09c0.88,0.12,1.63,0.27,2.27,0.47c0.64,0.19,1.18,0.38,1.61,0.58
			c0.42,0.19,0.75,0.34,0.99,0.47c0.23,0.12,0.41,0.19,0.53,0.21c0.13,0.02,0.24-0.03,0.33-0.15c0.1,0.04,0.14,0.06,0.24,0.11
			c-0.79,1.54-1.18,2.3-1.97,3.84C523.6,481.01,523.55,480.97,523.47,480.88z"/>
		<path d="M531.45,490.15c0.28,0.01,0.45-0.02,0.52-0.09c0.07-0.07,0.1-0.16,0.1-0.27c0-3.73,0-5.59,0-9.32
			c-1.51-0.22-2.26-0.32-3.77-0.54c-0.12-0.02-0.21,0.02-0.27,0.1c-0.06,0.08-0.1,0.27-0.13,0.54c-0.11-0.01-0.16-0.02-0.26-0.04
			c0-1.77,0-2.66,0-4.43c0.11,0.01,0.16,0.02,0.26,0.04c0.03,0.29,0.07,0.48,0.13,0.58s0.15,0.16,0.27,0.17
			c4.33,0.61,6.5,0.93,10.83,1.58c0.12,0.02,0.21-0.01,0.26-0.1c0.06-0.08,0.1-0.26,0.13-0.54c0.1,0.02,0.16,0.03,0.26,0.04
			c0,1.77,0,2.66,0,4.43c-0.11-0.02-0.16-0.02-0.26-0.04c-0.03-0.29-0.07-0.48-0.13-0.58c-0.06-0.1-0.15-0.16-0.26-0.18
			c-1.51-0.23-2.26-0.34-3.77-0.57c0,3.73,0,5.59,0,9.32c0,0.12,0.03,0.22,0.1,0.3c0.07,0.08,0.23,0.16,0.51,0.24
			c0,0.12,0,0.18,0,0.3c-1.81-0.27-2.71-0.4-4.51-0.66C531.45,490.32,531.45,490.26,531.45,490.15z"/>
		<path d="M546.18,492.22c0.07,0.08,0.24,0.17,0.51,0.24c0,0.12,0,0.18,0,0.3c-1.8-0.29-2.71-0.43-4.51-0.71c0-0.12,0-0.18,0-0.3
			c0.28,0.01,0.45-0.02,0.52-0.09c0.07-0.06,0.1-0.16,0.1-0.27c0-4.64,0-6.96,0-11.6c0-0.12-0.03-0.22-0.1-0.3
			c-0.07-0.09-0.24-0.16-0.52-0.24c0-0.12,0-0.18,0-0.3c3.21,0.5,4.81,0.75,8.01,1.28c1.62,0.27,2.79,0.8,3.52,1.59
			c0.73,0.8,1.09,1.9,1.09,3.31c0,1.15-0.29,1.99-0.88,2.54c-0.59,0.55-1.34,0.89-2.24,1.02c1.03,1.82,1.55,2.74,2.58,4.56
			c0.17,0.33,0.39,0.51,0.63,0.56c0,0.12,0,0.18,0,0.3c-1.82-0.31-2.73-0.46-4.55-0.76c0-0.12,0-0.18,0-0.3
			c0.32,0.04,0.48-0.09,0.48-0.37c0-0.03-0.06-0.16-0.17-0.38c-0.12-0.22-0.26-0.48-0.44-0.79c-0.18-0.31-0.37-0.64-0.58-1
			c-0.21-0.36-0.41-0.71-0.61-1.04c-0.2-0.33-0.37-0.62-0.52-0.88c-0.15-0.26-0.24-0.43-0.28-0.52c-0.86-0.14-1.29-0.21-2.14-0.34
			c0,1.67,0,2.51,0,4.18C546.08,492.03,546.11,492.13,546.18,492.22z M549.76,485.68c0.64,0.1,1.08,0.04,1.32-0.2
			c0.24-0.24,0.36-0.53,0.36-0.9c0-0.37-0.12-0.71-0.36-1.02c-0.24-0.31-0.68-0.52-1.32-0.62c-1.47-0.24-2.2-0.36-3.67-0.59
			c0,1.1,0,1.64,0,2.74C547.55,485.33,548.29,485.44,549.76,485.68z"/>
		<path d="M558.22,494.38c0.28,0.01,0.45-0.01,0.51-0.07c0.07-0.06,0.1-0.15,0.1-0.27c0-4.64,0-6.96,0-11.61
			c0-0.12-0.03-0.22-0.1-0.3c-0.07-0.09-0.24-0.17-0.51-0.25c0-0.12,0-0.18,0-0.3c1.8,0.31,2.7,0.47,4.5,0.79c0,0.12,0,0.18,0,0.3
			c-0.28-0.02-0.45,0.01-0.51,0.07c-0.07,0.06-0.1,0.15-0.1,0.27c0,4.64,0,6.96,0,11.6c0,0.12,0.03,0.22,0.1,0.31
			c0.07,0.09,0.24,0.17,0.51,0.25c0,0.12,0,0.18,0,0.3c-1.8-0.32-2.7-0.48-4.5-0.79C558.22,494.56,558.22,494.5,558.22,494.38z"/>
		<path d="M576.91,489.65c0.01-0.05,0.03-0.1,0.03-0.16c0.01-0.06,0.01-0.13,0.01-0.21c0-0.13-0.1-0.29-0.3-0.46
			c-0.2-0.17-0.46-0.34-0.79-0.51c-0.33-0.17-0.7-0.33-1.12-0.49c-0.42-0.15-0.86-0.28-1.33-0.36c-0.44-0.08-0.9-0.11-1.38-0.08
			s-0.92,0.14-1.32,0.33c-0.4,0.19-0.72,0.48-0.98,0.88c-0.25,0.39-0.38,0.91-0.38,1.54c0,0.63,0.13,1.19,0.38,1.68
			c0.25,0.49,0.58,0.9,0.98,1.24c0.4,0.34,0.84,0.61,1.32,0.82c0.48,0.21,0.94,0.35,1.38,0.43c0.19,0.04,0.49,0.05,0.89,0.06
			c0.41,0,0.81-0.02,1.22-0.08c0.41-0.06,0.76-0.13,1.08-0.24c0.31-0.11,0.47-0.25,0.47-0.43c0-0.08-0.01-0.16-0.04-0.21
			c-0.03-0.05-0.05-0.12-0.08-0.19c0.1-0.05,0.14-0.08,0.24-0.13c0.9,1.74,1.35,2.61,2.24,4.35c-0.1,0.05-0.16,0.08-0.26,0.12
			c-0.03-0.09-0.07-0.15-0.12-0.18c-0.05-0.03-0.11-0.06-0.19-0.08c-0.1-0.02-0.31,0.01-0.61,0.09c-0.3,0.08-0.7,0.15-1.19,0.22
			c-0.49,0.06-1.06,0.09-1.71,0.09c-0.65,0-1.39-0.08-2.2-0.23c-0.87-0.16-1.74-0.45-2.59-0.87c-0.86-0.42-1.63-0.97-2.31-1.65
			c-0.68-0.68-1.24-1.48-1.66-2.39c-0.42-0.91-0.63-1.93-0.63-3.04c0-1.11,0.21-2.05,0.63-2.81c0.42-0.76,0.97-1.36,1.66-1.79
			c0.68-0.43,1.46-0.71,2.31-0.83c0.86-0.12,1.72-0.1,2.59,0.06c0.87,0.16,1.62,0.36,2.25,0.59c0.63,0.23,1.17,0.45,1.6,0.67
			c0.42,0.21,0.75,0.39,0.98,0.52c0.23,0.14,0.41,0.22,0.52,0.24c0.13,0.03,0.24-0.02,0.32-0.14c0.1,0.05,0.14,0.07,0.24,0.12
			c-0.78,1.49-1.17,2.24-1.96,3.73C577.04,489.77,577,489.73,576.91,489.65z"/>
	</g>
</g>
<g>
	<g class="st2">
		<path class="st3" d="M577.18,264.78c-0.21,1.07-1.28,1.82-2.36,1.63c-1.06-0.19-1.78-1.24-1.57-2.31
			c0.21-1.07,1.28-1.82,2.36-1.63C576.68,262.65,577.4,263.71,577.18,264.78z"/>
		<path class="st3" d="M211.07,264.09c-0.22,1.07-1.29,1.82-2.36,1.63c-1.07-0.18-1.79-1.24-1.57-2.31
			c0.21-1.07,1.29-1.82,2.35-1.63C210.56,261.97,211.27,263.02,211.07,264.09z"/>
		<g class="st4">
			<path class="st1" d="M230.9,266.25c0.03,0.25,0.12,0.42,0.73,0.36l0.05,0.32l-4.93,0.84l-0.05-0.31c0.59-0.16,0.64-0.35,0.6-0.59
				l-1.8-12.34c-0.04-0.24-0.13-0.41-0.75-0.36l-0.04-0.32l8.57-1.46c3.01-0.52,4.88,1.29,5.22,3.64c0.35,2.36-0.91,4.66-3.93,5.17
				l-4.31,0.74L230.9,266.25z M229.85,259.13l3.64-0.62c1.29-0.22,1.87-0.8,1.71-1.92c-0.15-1.03-0.86-1.35-2.15-1.12l-3.65,0.62
				L229.85,259.13z"/>
			<path class="st1" d="M250.33,260.62l8.26-1.22c0.28-0.04,0.35-0.18,0.34-0.8l0.29-0.04l0.58,4.68l-0.29,0.04
				c-0.15-0.55-0.26-0.67-0.52-0.62l-12.54,1.85l-0.04-0.32c0.6-0.14,0.64-0.34,0.62-0.58l-1.52-12.38
				c-0.03-0.24-0.12-0.42-0.74-0.38l-0.03-0.32l4.94-0.73l0.04,0.32c-0.59,0.14-0.64,0.34-0.61,0.58L250.33,260.62z"/>
			<path class="st1" d="M275.37,247.12c-0.02-0.24-0.11-0.42-0.72-0.4l-0.03-0.32l4.96-0.62l0.03,0.32
				c-0.59,0.13-0.65,0.32-0.62,0.57l0.7,7.14c0.46,4.69-2.34,6.61-6.03,7.07c-3.68,0.46-6.79-0.72-7.26-5.41l-0.7-7.15
				c-0.02-0.24-0.11-0.42-0.72-0.39l-0.03-0.32l4.96-0.62l0.03,0.32c-0.6,0.13-0.65,0.32-0.62,0.57l0.7,7.14
				c0.2,2.05,1.4,2.74,3.32,2.5c1.92-0.24,2.95-1.2,2.74-3.26L275.37,247.12z"/>
			<path class="st1" d="M300.16,257.81l-0.03-0.33c0.6-0.11,0.66-0.31,0.64-0.55l-0.74-9.83l-0.04-0.05l-3.54,10.79l-5.01-10.05
				l-0.05,0.01l0.73,9.99c0.03,0.24,0.11,0.42,0.72,0.41l0.02,0.32l-4.25,0.42l-0.02-0.32c0.6-0.11,0.66-0.31,0.64-0.55l-0.92-12.46
				c-0.01-0.25-0.1-0.42-0.71-0.42l-0.02-0.31l6.29-0.63l0.03,0.32c-0.38,0.06-0.56,0.22-0.54,0.54c0.02,0.18,2.4,4.82,2.69,5.52
				c0.91-2.76,2.01-5.64,1.99-5.99c-0.01-0.32-0.22-0.44-0.6-0.42l-0.02-0.32l6.53-0.65l0.02,0.33c-0.6,0.11-0.65,0.31-0.64,0.55
				l0.92,12.45c0.02,0.24,0.11,0.42,0.71,0.41l0.01,0.32L300.16,257.81z"/>
			<path class="st1" d="M312.5,243.36c0-0.24-0.09-0.42-0.69-0.43l-0.02-0.32l9.21-0.68c2.61-0.19,4.57,0.74,4.7,3.39
				c0.08,1.61-0.83,2.67-2.17,3.09l0,0.05c1.65,0.36,2.88,1.24,2.97,3.22c0.11,2.15-1.25,4.07-4.68,4.33l-9.33,0.69l-0.02-0.32
				c0.61-0.1,0.67-0.29,0.66-0.53L312.5,243.36z M316.35,247.59l3.29-0.24c2.08-0.15,2.6-0.36,2.55-1.43
				c-0.05-1.07-0.59-1.19-2.67-1.04l-3.29,0.25L316.35,247.59z M316.65,253.54l4.11-0.31c1.7-0.13,2.35-0.6,2.29-1.78
				c-0.06-1.18-0.75-1.56-2.45-1.44l-4.12,0.31L316.65,253.54z"/>
			<path class="st1" d="M334.09,255.2l-0.01-0.32c0.61-0.09,0.68-0.28,0.66-0.52l-0.4-12.5c0-0.24-0.08-0.43-0.69-0.45l0-0.32
				l4.98-0.28l0.01,0.32c-0.6,0.09-0.67,0.28-0.67,0.52l0.4,12.5c0,0.24,0.09,0.42,0.68,0.45l0.02,0.32L334.09,255.2z"/>
			<path class="st1" d="M347.53,241.15c0-0.24-0.08-0.43-0.68-0.46l0-0.32l5.83-0.23l0,0.32c-0.56,0.04-0.68,0.21-0.67,0.38
				c0.01,0.3,4.26,5.08,5.99,7.07l-0.09-7.16c-0.01-0.33-0.21-0.45-0.52-0.46l0-0.32l4.43-0.17l0,0.32
				c-0.6,0.08-0.67,0.27-0.67,0.51l0.17,12.51c-0.01,0.24,0.07,0.42,0.68,0.46l0,0.32l-4.6,0.18l0-0.33
				c0.43-0.02,0.55-0.13,0.55-0.31c0-0.35-0.62-0.68-7.11-8.35l0.11,8.43c0,0.24,0.08,0.43,0.68,0.46l0,0.32l-4.6,0.18l0-0.32
				c0.61-0.08,0.67-0.27,0.67-0.51L347.53,241.15z"/>
			<path class="st1" d="M380.34,248.4l-3.12,0.05c-0.26,0-0.35,0.22-0.37,0.54l-0.29,0l0.04-3.76l0.29,0
				c0.02,0.35,0.08,0.48,0.35,0.47l7.15-0.11l-0.01,0.32c-0.29,0.03-0.38,0.16-0.39,0.46l-0.04,4.46c-0.01,0.24,0.04,0.45,0.28,0.45
				l0.12,0l0,0.32c-2.19,1.38-4.82,2.1-7.81,2.14c-4.05,0.07-7.84-2.23-7.8-7.09c0.05-4.87,3.89-7.29,7.94-7.35
				c1.6-0.02,2.29,0.1,3.94,0.58c0.8,0.23,1.57,0.67,1.76,0.67c0.15,0,0.27-0.11,0.34-0.22l0.29,0.1l-1.61,3.57l-0.28-0.18
				c0.01-0.06,0.04-0.16,0.04-0.3c0.01-0.51-2.38-1.25-4.39-1.22c-2.29,0.03-4.42,1.44-4.44,4.34c-0.03,2.9,2.5,4.12,4.61,4.09
				c1.34-0.03,2.39-0.23,3.39-0.57L380.34,248.4z"/>
			<path class="st1" d="M414.47,247.81l-0.19-0.01c-0.05-0.24-0.16-0.38-0.52-0.38c-0.63-0.01-1.54,1.45-1.78,2.06
				c0.32,0.38,1.17,0.93,1.65,0.94c0.22,0,0.39-0.13,0.45-0.37l0.29,0l-0.15,3.76c-1.53,0-3.32-0.4-4.34-1.7
				c-1.57,1.24-3.12,1.59-5.01,1.57c-2.4-0.04-5.21-1.42-5.08-4.54c0.08-2.09,1.51-3.5,3.21-4.15c-0.64-0.57-1.13-1.35-1.09-2.3
				c0.11-2.85,2.65-3.49,4.69-3.46c2.03,0.03,4.37,0.71,4.26,3.47c-0.04,1.4-1.13,2.32-2.13,2.93c0.52,0.52,0.96,1.19,1.4,1.82
				c1.17-1.79,2.67-3.4,4.53-4.29L414.47,247.81z M408.33,249.39c-0.43-1.54-1.29-2.39-2.59-2.41c-1.2-0.02-2.16,0.67-2.2,1.85
				c-0.04,1.18,0.85,1.89,2.05,1.91C406.53,250.76,407.72,250.22,408.33,249.39z M404.76,242.84c0.04,1.08,0.87,1.57,1.61,1.58
				c0.76,0.01,1.62-0.46,1.73-1.54c-0.04-1.06-0.85-1.56-1.61-1.57C405.75,241.29,404.88,241.77,404.76,242.84z"/>
			<path class="st1" d="M443.96,253.96c-0.01,0.25,0.05,0.43,0.65,0.51l-0.03,0.32l-4.97-0.23l0.02-0.32
				c0.61-0.02,0.69-0.21,0.71-0.45l0.34-4.97l-6.27-0.29l-0.37,4.96c-0.02,0.24,0.05,0.43,0.64,0.52l-0.02,0.32l-4.98-0.22
				l0.03-0.32c0.61-0.03,0.69-0.21,0.71-0.45l0.89-12.51c0.01-0.24-0.04-0.43-0.64-0.51l0.02-0.33l4.98,0.23l-0.02,0.32
				c-0.61,0.03-0.69,0.21-0.71,0.45l-0.3,4.27l6.28,0.28l0.3-4.27c0.02-0.24-0.04-0.43-0.64-0.51l0.02-0.33l4.98,0.23l-0.01,0.32
				c-0.61,0.03-0.7,0.22-0.72,0.45L443.96,253.96z"/>
			<path class="st1" d="M462.5,250.74l-0.31-0.02c-0.04-0.36-0.18-0.64-0.66-0.68l-4.48-0.3l-0.24,2.5l7.73,0.52
				c0.27,0.01,0.39-0.11,0.52-0.77l0.29,0.02l-0.43,4.66l-0.29-0.03c-0.03-0.45-0.12-0.6-0.38-0.62l-12.03-0.81l0.03-0.32
				c0.61-0.01,0.7-0.19,0.72-0.43l1.16-12.49c0.01-0.24-0.02-0.43-0.63-0.53l0.03-0.32l12.03,0.81c0.26,0.01,0.37-0.11,0.5-0.72
				l0.29,0.02l-0.43,4.66l-0.29-0.02c-0.02-0.62-0.1-0.76-0.37-0.78l-7.73-0.52l-0.21,2.22l4.48,0.31c0.49,0.03,0.68-0.23,0.78-0.57
				l0.29,0.02L462.5,250.74z"/>
			<path class="st1" d="M476.01,253.91c-0.85,1.89-1.04,2.23-1.05,2.39c-0.02,0.16,0.06,0.28,0.4,0.31l-0.03,0.32l-4.25-0.37
				l0.04-0.32c0.34-0.06,0.5-0.15,0.69-0.56c0.29-0.6,5.69-12.01,5.71-12.17c0.02-0.19-0.23-0.27-0.45-0.31l0.04-0.32l6.27,0.56
				l-0.04,0.32c-0.28,0.01-0.44,0.05-0.47,0.32c-0.04,0.21,2.01,8.47,3.03,12.67c0.18,0.66,0.3,0.84,0.59,0.86l-0.05,0.32
				l-4.73-0.42l0.04-0.32c0.34,0,0.48-0.12,0.49-0.28c0.02-0.1-0.48-2.12-0.53-2.48L476.01,253.91z M476.86,251.82l4.47,0.4
				l-1.6-6.57L476.86,251.82z"/>
			<path class="st1" d="M494.26,258.73l0.05-0.32c0.6,0.01,0.7-0.16,0.74-0.41l1.33-9.98l-4.12-0.45c-0.27-0.03-0.38,0.1-0.53,0.7
				l-0.29-0.03l0.63-4.76l0.29,0.04c-0.01,0.62,0.07,0.76,0.33,0.79l11.84,1.28c0.26,0.03,0.39-0.09,0.54-0.7l0.29,0.03l-0.64,4.75
				l-0.29-0.03c0-0.62-0.07-0.77-0.33-0.79l-4.13-0.44l-1.34,9.97c-0.03,0.25,0.02,0.44,0.61,0.56l-0.04,0.32L494.26,258.73z"/>
			<path class="st1" d="M510.03,260.54l0.04-0.31c0.6,0.02,0.71-0.17,0.74-0.4l1.89-12.42c0.04-0.24-0.01-0.43-0.6-0.56l0.05-0.32
				l4.92,0.62l-0.04,0.32c-0.6-0.02-0.71,0.16-0.74,0.4l-1.88,12.42c-0.03,0.24,0.01,0.44,0.59,0.57l-0.04,0.32L510.03,260.54z"/>
			<path class="st1" d="M525.71,249.09c0.06-0.24,0.01-0.43-0.58-0.57l0.06-0.32l5.74,0.85l-0.06,0.31
				c-0.54-0.05-0.7,0.09-0.73,0.25c-0.05,0.3,3.24,5.79,4.57,8.09l1.21-7.11c0.05-0.31-0.11-0.47-0.42-0.55l0.04-0.32l4.37,0.65
				l-0.06,0.31c-0.6-0.03-0.71,0.14-0.75,0.39l-2.12,12.39c-0.04,0.24,0.01,0.44,0.58,0.57l-0.05,0.32l-4.54-0.66l0.06-0.32
				c0.42,0.07,0.56-0.02,0.6-0.21c0.06-0.34-0.48-0.78-5.44-9.54l-1.43,8.35c-0.04,0.24,0,0.43,0.6,0.58l-0.06,0.32l-4.53-0.67
				l0.05-0.31c0.61,0.03,0.72-0.14,0.76-0.38L525.71,249.09z"/>
			<path class="st1" d="M556.44,262.27l-3.06-0.53c-0.27-0.04-0.38,0.16-0.47,0.47l-0.29-0.04l0.74-3.7l0.29,0.04
				c-0.05,0.35,0,0.5,0.27,0.54l7,1.2l-0.07,0.32c-0.28-0.02-0.41,0.09-0.47,0.38l-0.86,4.39c-0.06,0.24-0.05,0.46,0.19,0.5
				l0.13,0.02l-0.07,0.32c-2.4,0.95-5.12,1.18-8.03,0.67c-3.97-0.68-7.25-3.65-6.31-8.45c0.94-4.79,5.15-6.47,9.12-5.79
				c1.57,0.26,2.23,0.52,3.74,1.29c0.74,0.38,1.4,0.95,1.59,0.99c0.14,0.02,0.28-0.06,0.38-0.15l0.26,0.15l-2.23,3.22l-0.25-0.23
				c0.03-0.05,0.08-0.15,0.11-0.29c0.1-0.5-2.1-1.68-4.08-2.01c-2.25-0.39-4.57,0.6-5.14,3.46c-0.57,2.86,1.68,4.53,3.75,4.89
				c1.3,0.22,2.38,0.22,3.42,0.07L556.44,262.27z"/>
		</g>
	</g>
</g>
<path class="st1" d="M523,497.23c-2,1.33-4.08,2.63-6.24,3.89c-0.58,0.02-1.17,0.03-1.78,0.03c-9.62-0.02-14.28-2.42-19.24-4.96
	c-2.03-1.04-4.09-2.1-6.47-3c-7.34-0.74-14.72-1.41-22.17-1.98c-6.33,0.91-10.48,2.95-14.52,4.95c-5.06,2.5-9.83,4.86-19.19,4.84
	c-9.6-0.02-14.26-2.4-19.19-4.92c-5.21-2.66-10.58-5.41-21.32-5.43c-10.89-0.02-16.43,2.72-21.78,5.38
	c-5.02,2.49-9.75,4.83-19.29,4.82c-9.5-0.01-14.14-2.41-19.05-4.94c-3.78-1.94-7.67-3.93-13.61-4.89
	c-7.89,0.59-15.71,1.27-23.47,2.04c-2.2,0.84-4.13,1.81-6.06,2.77c-5.04,2.51-9.81,4.89-19.39,4.87c-1.57,0-3-0.07-4.32-0.19
	c-1.78-1.08-3.47-2.19-5.12-3.32c-1.58,0.21-3.14,0.44-4.7,0.66c29.78,21.62,80.01,35.07,134.5,35.16
	c54.9,0.1,106.2-13.35,137.1-35.14C526.11,497.64,524.56,497.44,523,497.23z M370.01,529.1c1.11-0.51,2.18-1.03,3.24-1.56
	c5.05-2.51,9.82-4.87,19.5-4.85c9.54,0.02,14.18,2.39,19.09,4.9c0.9,0.46,1.82,0.92,2.76,1.37c-7.87,0.56-15.87,0.85-23.96,0.83
	C383.68,529.79,376.8,529.54,370.01,529.1z M424.63,528.09c-4.27-0.92-7.3-2.46-10.44-4.07c-5.21-2.66-10.58-5.41-21.32-5.43
	c-10.89-0.02-16.43,2.72-21.78,5.38c-3.51,1.74-6.89,3.41-11.87,4.25c-22.07-2.19-42.77-6.6-60.83-12.82c3.78-1.4,7.41-2.01,12.26-2
	c9.61,0.01,14.28,2.42,19.22,4.95c5.2,2.69,10.58,5.45,21.29,5.47c10.76,0.02,16.26-2.7,21.58-5.35c5.04-2.5,9.81-4.86,19.5-4.85
	c9.54,0.02,14.18,2.39,19.09,4.89c5.22,2.67,10.62,5.43,21.42,5.45c10.57,0.02,16.11-2.72,21.47-5.37
	c5.13-2.54,9.97-4.93,19.62-4.91c4.51,0.01,8.38,0.73,11.28,1.59C467.04,521.46,446.47,525.85,424.63,528.09z M491.14,513.12
	c-4.16-1.84-9.42-3.5-17.2-3.52c-10.85-0.02-16.46,2.76-21.89,5.44c-5.06,2.5-9.83,4.86-19.19,4.84c-9.6-0.03-14.26-2.4-19.19-4.92
	c-5.2-2.66-10.58-5.41-21.33-5.43c-10.89-0.02-16.43,2.72-21.78,5.38c-5,2.49-9.74,4.83-19.29,4.82c-9.5-0.02-14.14-2.41-19.04-4.93
	c-5.24-2.7-10.65-5.48-21.47-5.5c-8.15-0.01-13.29,1.55-18.35,3.94l-5.28-2.33c1.54-0.66,2.97-1.38,4.38-2.08
	c5.05-2.51,9.81-4.89,19.4-4.87c9.61,0.02,14.28,2.42,19.22,4.96c5.19,2.68,10.58,5.45,21.29,5.47c10.76,0.03,16.25-2.7,21.58-5.34
	c5.05-2.5,9.81-4.86,19.5-4.84c9.54,0.02,14.18,2.39,19.09,4.9c5.22,2.66,10.62,5.42,21.43,5.44c10.57,0.02,16.1-2.72,21.46-5.36
	c5.13-2.53,9.97-4.93,19.62-4.91c9.48,0.02,14.11,2.4,19.03,4.92c1.16,0.6,2.31,1.2,3.54,1.76
	C494.85,511.69,493.01,512.42,491.14,513.12z M502.07,508.62c-2.42-0.86-4.49-1.91-6.6-2.99c-5.21-2.68-10.59-5.44-21.27-5.47
	c-10.85-0.02-16.46,2.75-21.89,5.44c-5.06,2.5-9.83,4.86-19.19,4.84c-9.6-0.02-14.26-2.4-19.19-4.92
	c-5.2-2.66-10.58-5.41-21.32-5.43c-10.89-0.02-16.43,2.72-21.78,5.38c-5,2.48-9.74,4.83-19.29,4.81c-9.5-0.01-14.14-2.41-19.04-4.92
	c-5.24-2.69-10.65-5.48-21.47-5.5c-10.81-0.02-16.34,2.73-21.69,5.4c-2.51,1.26-4.97,2.49-7.99,3.39c-2.77-1.27-5.46-2.58-8.06-3.95
	c8.74-0.47,13.7-2.92,18.5-5.32c5.03-2.51,9.8-4.88,19.38-4.87c9.62,0.02,14.29,2.42,19.22,4.96c5.2,2.68,10.57,5.45,21.29,5.47
	c10.75,0.02,16.26-2.71,21.57-5.34c5.05-2.51,9.82-4.87,19.5-4.85c9.54,0.02,14.18,2.39,19.09,4.9c5.21,2.67,10.61,5.42,21.42,5.44
	c10.57,0.02,16.1-2.71,21.46-5.36c5.13-2.54,9.97-4.93,19.62-4.92c9.49,0.02,14.13,2.41,19.03,4.93c4.33,2.22,8.78,4.5,16.29,5.25
	C507.22,506.24,504.67,507.45,502.07,508.62z"/>
</svg>
