<?xml version="1.0" encoding="UTF-8"?><svg id="a" xmlns="http://www.w3.org/2000/svg" xmlns:xlink="http://www.w3.org/1999/xlink" viewBox="0 0 147.1794 48.6693"><defs><style>.c{fill:#fff;}.d{fill:#007853;}.e{clip-path:url(#b);}.f{fill:none;}</style><clipPath id="b"><rect class="f" y="0" width="147.1792" height="48.6693"/></clipPath></defs><g class="e"><path class="c" d="M.2493,24.3331c0,15.6458,37.7868,24.0868,73.3406,24.0868s73.3402-8.4411,73.3402-24.0868S109.1432,.2493,73.5899,.2493,.2493,8.6904,.2493,24.3331H.2493Z"/><path class="d" d="M73.5899,.4987C55.245,.4987,37.0451,2.7461,23.6569,6.6647,4.5166,12.2667,.4987,19.3648,.4987,24.3331s4.018,12.0686,23.1582,17.6712c13.388,3.9188,31.5876,6.1663,49.933,6.1663s36.5444-2.2475,49.9323-6.1663c19.1402-5.6026,23.1583-12.702,23.1583-17.6712s-4.0181-12.0664-23.1583-17.6684C110.1338,2.7461,91.9345,.4987,73.5899,.4987h0Zm0,48.1707C37.9151,48.6693,0,40.1403,0,24.3331S37.9151,0,73.5899,0s73.5893,8.5282,73.5893,24.3332-37.9151,24.3362-73.5893,24.3362h0Z"/></g><path class="d" d="M114.9286,29.8154l-2.6006-.0262-.0587-.0039c-.2399-.0117-.4126-.0206-.4126-.1664,0-.1592,.1619-.1747,.2388-.1826l.0855-.0746-.004-.1514-1.0988-2.8553c-.0165-.0429-.0348-.0556-.0787-.0556h-3.0646c-.0325,0-.0428,0-.0661,.0684l-.7421,1.9274c-.1385,.339-.2018,.6518-.2018,.7981,0,.1753,.0587,.3556,.4873,.3556h.2058c.1362,0,.2696,.0128,.2696,.1698,0,.1965-.2075,.1965-.2964,.1965l-1.4556-.0395-.3021,.0095-1.32,.0301c-.1134,0-.3237,0-.3237-.1965,0-.113,.0764-.1698,.228-.1698l.4178-.0272c.5694-.0718,.8236-.4531,1.1171-1.1744l3.4493-8.46c.1698-.4007,.2633-.5772,.4423-.5772,.1647,0,.2599,.1514,.4012,.4687l1.2447,3.03,2.1629,5.2553c.4896,1.1371,.8646,1.3625,1.1638,1.4315l.5648,.0534c.0792,0,.2411,0,.2411,.1698,0,.1793-.2006,.1965-.6942,.1965h0Zm-11.242,0h-1.3057c-.7569,0-1.1222-.0629-1.4989-.2627-.5825-.305-1.0977-.9123-1.9042-1.9976l-.7005-.9668-.6571-.89c-.0519-.0601-.1117-.0718-.2012-.0718l-1.1934-.0272c-.0416,0-.0479,.0055-.0479,.0456v.1893c0,1.2401,0,2.312,.0684,2.8753,.0427,.4096,.1322,.6406,.4822,.6863l.6651,.0534c.2103,0,.2268,.1297,.2268,.1698,0,.1302-.1134,.1965-.3368,.1965l-1.577-.029-.4434-.0106-.5568,.0145-1.1194,.025c-.2234,0-.3368-.0663-.3368-.1965,0-.1698,.212-.1698,.2816-.1698l.4827-.0534c.2194-.0429,.2901-.2649,.3488-.6874,.0678-.5621,.0678-1.6268,.0678-2.8619v-2.3705l-.0268-2.8525c-.0245-.4186-.11-.6206-.5432-.7102l-.5209-.039c-.0815,0-.2958,0-.2958-.1836s.2274-.1837,.3648-.1837l1.3314,.0273,.5511,.0133,1.0088-.0212,.9279-.0195c.8333,0,1.789,.0702,2.563,.59,.3328,.2215,.9621,.9028,.9621,1.8974,0,1.1081-.5409,2.0154-1.7902,3.0239,.0627,.078,.4411,.546,.4411,.546,1.0059,1.2434,1.7999,2.2263,2.4992,2.9466,.7375,.7491,1.2846,.8554,1.5046,.8983l.3745,.0401c.2103,0,.2268,.1297,.2268,.1698,0,.1965-.2263,.1965-.3226,.1965h0Zm-11.8918,0h-1.3057c-.7563,0-1.1211-.0629-1.4978-.2627-.5825-.305-1.0983-.9123-1.9042-1.9976l-.701-.9668-.6571-.89c-.0513-.0601-.1123-.0718-.2012-.0718l-1.1935-.0272c-.0416,0-.0473,.0055-.0473,.0456v.1893c0,1.2401,0,2.312,.0678,2.8753,.0433,.4096,.1328,.6406,.4822,.6863l.6651,.0534c.2109,0,.2274,.1297,.2274,.1698,0,.1302-.1129,.1965-.3374,.1965l-1.5764-.029-.4434-.0106-.5568,.0145-1.1194,.025c-.224,0-.3368-.0663-.3368-.1965,0-.1698,.212-.1698,.2821-.1698l.4827-.0534c.2188-.0429,.2895-.2649,.3482-.6874,.0678-.5621,.0678-1.6268,.0678-2.8619v-2.3705l-.0274-2.8525c-.0251-.4186-.1094-.6206-.5426-.7102l-.5221-.039c-.0804,0-.2947,0-.2947-.1836s.2274-.1837,.3636-.1837l1.3325,.0273,.5506,.0133,1.0082-.0212,.9284-.0195c.8333,0,1.789,.0702,2.563,.59,.3328,.2215,.9626,.9028,.9626,1.8974,0,1.1081-.5409,2.0154-1.7913,3.0239,.0633,.078,.4417,.546,.4417,.546,1.0054,1.2434,1.7999,2.2263,2.4992,2.9466,.7375,.7491,1.2846,.8554,1.5052,.8983l.3739,.0401c.2114,0,.2274,.1297,.2274,.1698,0,.1965-.2263,.1965-.3237,.1965h0Zm-13.2682-.3557c-.1089,.3968-.2838,.3968-.8019,.3968l-2.7648-.0545-1.0413-.0262-.644,.0156-1.0874,.024c-.2234,0-.3368-.0663-.3368-.1965,0-.1698,.212-.1698,.2815-.1698l.4827-.0534c.2189-.0429,.2895-.2649,.3488-.6874,.0684-.5621,.0684-1.6268,.0684-2.8619v-2.3705l-.0274-2.8525c-.0251-.4186-.1094-.6206-.5432-.7102l-.5209-.039c-.0815,0-.2958,0-.2958-.1836s.2274-.1837,.3642-.1837l1.2846,.0251,.6936,.0156,3.4288-.0133,.5847-.0802,.0775-.0212,.155-.0334c.0661,0,.1448,.0317,.1448,.1831l-.0199,.1386-.0901,.7436-.0188,.2744-.0513,.6212c-.0262,.1313-.0935,.1976-.1983,.1976-.1864,0-.1864-.1892-.1864-.2516l-.0769-.4614c-.0849-.2109-.1955-.3668-.8714-.4464-.2308-.0267-1.6853-.0529-1.9429-.0529-.0211,0-.0342,0-.0342,.0723v3.4085c0,.0852,.0091,.0852,.0342,.0852l2.1931-.0267c.3163-.0256,.5084-.0624,.6366-.202l.2479-.1754c.0986,0,.1584,.0635,.1584,.1704l-.0171,.1274-.0935,.8621-.0536,.8966c0,.1108,0,.3173-.1864,.3173-.1174,0-.1864-.0679-.1864-.1765l-.0091-.1252-.0439-.3512c-.0496-.192-.1755-.4208-.7153-.4781,0,0-1.9441-.0401-1.9543-.039l-.0108,.0707v1.0642l-.0023,.5555,.0023,1.5311c.0256,.8682,.1755,1.0709,1.5861,1.0709,.3448,0,.921,0,1.2664-.1558,.33-.1492,.4884-.4063,.5825-.9512,.0262-.1386,.0593-.2544,.2132-.2544,.1716,0,.1716,.1704,.1716,.3061,0,.3156-.1094,1.2328-.1807,1.5111h0Zm-9.6342,.3557l-1.5121-.0262-.6309-.0133-.644,.0156-1.0869,.024c-.224,0-.3374-.0663-.3374-.1965,0-.1698,.212-.1698,.2821-.1698l.4827-.0534c.2154-.0417,.3038-.1982,.3488-.62,.0678-.5621,.0678-1.6058,.0678-2.9293v-2.3705l-.0274-2.8525c-.0262-.4347-.1476-.6367-.4206-.698l-.4782-.0512c-.0781,0-.2833,0-.2833-.197,0-.1703,.2559-.1703,.3921-.1703l1.7868,.0406,.6725-.0173,1.0037-.0234c.0963,0,.3505,0,.3505,.1703,0,.197-.2046,.197-.2816,.197l-.4007,.0396c-.3192,.0579-.4297,.2304-.4577,.7102l-.0279,2.8519v2.3705c0,1.3235,0,2.3682,.0547,2.9443,.0405,.3556,.1311,.5571,.4964,.605l.6919,.0534c.2456,0,.2827,.1064,.2827,.1698,0,.0596-.0319,.1965-.3243,.1965h0Zm-8.1877-.3729c-.6024,.3779-1.3279,.5622-2.2176,.5622-.8481,0-1.4556-.1063-2.0309-.3557-.2455-.1063-.2989-.1976-.2989-.5154,0,0,.0662-1.722,.0687-1.7688,.008-.1119,.0278-.408,.2279-.408,.1998,0,.1998,.2182,.1998,.2911l.1208,.6696c.3475,1.1449,1.3427,1.3153,1.9046,1.3153,1.1558,0,1.7794-.7586,1.7794-1.4733,0-.6635-.2246-1.2757-1.3223-2.1055l-.6321-.4842c-1.4425-1.1065-2.0581-2.0761-2.0581-3.2432,0-1.5356,1.3308-2.6076,3.2367-2.6076,.8566,0,1.4351,.123,1.8403,.2299,.0724,.0161,.2417,.0528,.2417,.2232l-.0114,.221-.0433,1.3948c0,.226-.0165,.4664-.2143,.4664-.1322,0-.1995-.1024-.1995-.3044,0-.0913-.0581-.5037-.3431-.8499-.2206-.2733-.6104-.6367-1.4494-.6367-.9558,0-1.573,.5198-1.573,1.3247,0,.6245,.3477,1.0837,1.4317,1.8896l.3847,.2839c1.6819,1.2779,2.2786,2.1902,2.2786,3.4853,0,.5789-.1716,1.6614-1.3211,2.3961h0ZM73.5899,2.7439C34.4629,2.7439,2.7439,12.4106,2.7439,24.3331c0,7.2812,11.8237,13.7197,29.9376,17.6316-.3184-.5232-.6473-1.0475-1.04-1.6185-.3615-.7625-.3434-1.6105-.9542-2.2299-.3943-.5282-.2733-1.6909-1.198-1.5573-3.6534-.8399-7.3797-1.367-10.993-2.3872-.9996-.1765-.7589-1.4271-1.64-1.8311-.1316-.2115-.0982-.5711,.1578-.6568,.7105-.3189,1.3806-.2271,2.0563-.0929,.037-.098,.1344-.0067,.2307,.0478,.0507,.01,.0991,.0184,.1472,.0323,.3637-.1191,.6392,.0685,.9743,.1297l-.0095,.0106c.2145,.01,.4313,.0028,.6537-.0362,.1342,.0623,.2672,.1208,.4027,.1747,.1088-.0061,.2279,.0162,.3194,.0251l1.3066,.5115c.1695,.089,.3673,.1709,.5791,.2465,1.0405,.3206,2.0928,.6111,3.1216,.9807,.7119,.2705,1.4822,.2649,2.1687,.5922,.143-.0573,.3412,.1436,.4475-.0673-.7096-.6023-.9144-1.79-1.9864-2.007-.8925,0-1.6673-.4876-2.518-.6657-1.6057-.7614-3.3442-1.0263-4.9772-1.7443-1.6241,.0518-3.062-.6969-4.6856-.6373-.4464-.0451-.5465-.541-.9554-.6762l-2.6772-.1336c-.2652-.1024-.5563-.3969-.386-.7024,.0955-.2811,.3829-.4085,.6175-.5121,1.232,.266,2.6385,.207,3.9311-.1742,.8187-.044,1.7543,.2828,2.4489-.044-.1105-.3039-.5769-.1647-.5983-.5521-.03-.3123,.0164-.5828,.3089-.6774,.9103-.3228,1.6319,.138,2.481,.0702,1.82-.1008,3.7544-.5867,5.4798-.2845,.3862-.1252,2.2511,.334,2.5528,.0807l-1.4774-.5699c-2.2044-.8332-4.4373-1.4855-6.6436-2.3204-.445-.6406-1.6143-.3696-1.444-1.3976,.1246-.3195,.4906-.3534,.782-.4464,1.7813,.0089,3.4983,.3668,5.3746,.0457,2.1921,.3774,4.4541,.4419,6.65,.748,.0707,.0078,.108-.0696,.1528-.1113-.4074-.6278-1.1766-.5727-1.746-.9306-3.6403-1.0886-7.4913-1.3018-11.3111-1.6564-1.1752-.0974-2.3321-.3039-3.4973-.4709-.9598-.0067-1.9149-.0818-2.8046-.4141-.2778-.2661-.4339-.5828-.4773-.9412,0,0,1.013-1.7399,2.4534-2.4412,.8897-.4336,3.2482-.3256,3.2482-.3256,.0312,.0183,.1107-.0078,.14,.0167,1.9116-.0601,3.6584,.5188,5.4397,.9718,1.5737,.0395,2.9629,.831,4.4813,1.0931,1.6235,.2984,3.1299,1.0709,4.8119,1.1839,.1737-.0779,.1188-.2477,.0643-.3985-1.682-1.171-3.5048-2.2703-5.3752-2.8686-1.3829-.9685-3.0595-.959-4.5292-1.682-.0312-.0517-.0662-.1013-.1049-.1519,0,0-.8803-1.3358,2.0955-1.1616,.915-.4681,1.9767-.9551,2.8622-1.2083,1.9536-.556,2.4854,.2109,2.4854,.2109,.2107,.1213,.4194,.2465,.6301,.364,.076,.1976,.2413,.2666,.4055,.3657,.6949,.979,1.8409,1.2206,2.5258,2.1461,.4761,.4971,1.5648,.8165,1.2562,1.7271-.693,.9267-1.7302,.0161-2.5233-.241-.5658-.1853-1.1335-.4926-1.6845-.4842-.0776,.0457-.0164,.1275-.0253,.1793,1.7176,1.3252,3.7889,2.3911,5.3296,3.9846,.1408,.3005,.1492,.7057-.1419,.9056-.1361-.0178-.1458,.1452-.2232,.2076,.0228,.1559,.175,.2934,.3275,.2894,2.6196,.9156,5.1361,2.2664,7.7932,3.089,.3042,.3462,.9061,.0835,1.0169,.6495-.0279,.2671,.1113,.6384-.2043,.7887-.7895,.2521-1.3887-.2966-2.0886-.4608-.5065-.0178-.9404-.6083-1.4282-.3473-.0451,.4164-.2218,.9323-.701,.9846-.8396,.2426-1.4616-.3401-2.2363-.3529-1.0692-.1987-2.1206-.4569-3.167-.7313-2.5872-.1964-4.9738-1.2512-7.6643-.9912-.0379,.0784-.1459,.0389-.1812,.1491l.0195,.1375c1.5114,.684,3.1992,.6022,4.6533,1.4922,.8343,.1642,1.5707,.7291,2.4019,.8928,2.1915,.5176,4.3235,1.4148,6.5524,1.8194,.2699,.1386,.5774,.3918,.6189,.6713-1.0119,.8326-1.9389-.3584-2.9827-.2638-.1561,.3379,.3862,.492,.4773,.7775,.3136,.5399,.4667,1.4861,1.2918,1.3887,.8627,.9851,2.1454,.876,3.1074,1.7276,.4182,.0985,.7394,.3529,.9484,.7475,.5613,.7464,1.8771,.757,1.652,1.9169-.4052,.5856-.9635,.9111-1.2289,1.5328-.2744,.443-.5006,1.0942-1.144,1.0608-.6162,.0529-1.1616-.2405-1.692-.5327-2.1022-.2332-3.9667-1.5016-6.0859-1.6219-1.7296-.4391-3.4246-.9957-5.137-1.4393l-.0966,.1514,.7074,1.5422c.6768,.5031,1.66,.2928,2.1033,1.1822,.4169,.4347,.9851,.2827,1.4396,.5204,1.3581,.5621,2.7759,.8399,4.1198,1.4059-.281,.393-.6084,1.0402-1.2231,.7547-.8616-.3696-1.7443-.6706-2.6919-.7113-.7758-.2399-1.5757-.4269-2.368-.5421-.5051,.9356,.4224,1.7922,.4695,2.8099,.0078,.4186,.2349,.7046,.3974,1.0352,.1035,.393,.2096,.7814,.3364,1.1566,11.354,2.3599,25.0715,3.7391,39.8489,3.7391,39.1268,0,70.8456-9.6664,70.8456-21.5922S112.7167,2.7439,73.5899,2.7439h0Zm23.3777,17.5212c-.3716,0-.5899,.0156-.7107,.0512-.061,.0167-.0792,.0368-.0792,.1291v4.0948c0,.1369,.0222,.1586,.0809,.1836,.2519,.0813,.636,.1319,1.0247,.1319,.5443,0,.705-.0529,.9393-.2182,.2929-.211,.7842-.7469,.7842-1.9698,0-1.8974-1.2824-2.4027-2.0392-2.4027h0Zm12.5318,1.8584c-.0091,.0239-.0211,.0507-.0217,.0545,0,0-1.2653,3.3128-1.2681,3.3239h2.5283l.0102,.0028s-1.2373-3.3267-1.2413-3.3457l-.0074-.0356h0Zm-24.423-1.8584c-.371,0-.5899,.0156-.7113,.0512-.0598,.0167-.0781,.0368-.0781,.1291v4.0948c0,.1369,.0222,.1586,.0804,.1836,.2525,.0813,.6355,.1319,1.0247,.1319,.5449,0,.705-.0529,.9398-.2182,.293-.211,.7842-.7469,.7842-1.9698,0-1.8974-1.2824-2.4027-2.0398-2.4027h0Z"/></svg>