<?xml version="1.0" encoding="UTF-8" standalone="no"?>
<svg
   viewBox="-0 -0 400 400"
   version="1.1"
   id="svg4"
   sodipodi:docname="logo.svg"
   inkscape:version="1.1.2 (0a00cf5339, 2022-02-04)"
   xmlns:inkscape="http://www.inkscape.org/namespaces/inkscape"
   xmlns:sodipodi="http://sodipodi.sourceforge.net/DTD/sodipodi-0.dtd"
   xmlns="http://www.w3.org/2000/svg"
   xmlns:svg="http://www.w3.org/2000/svg">
  <defs
     id="defs8" />
  <sodipodi:namedview
     id="namedview6"
     pagecolor="#ffffff"
     bordercolor="#666666"
     borderopacity="1.0"
     inkscape:pageshadow="2"
     inkscape:pageopacity="0.0"
     inkscape:pagecheckerboard="0"
     showgrid="false"
     inkscape:zoom="0.079439028"
     inkscape:cx="-2926.773"
     inkscape:cy="-1007.0617"
     inkscape:window-width="1920"
     inkscape:window-height="1012"
     inkscape:window-x="0"
     inkscape:window-y="0"
     inkscape:window-maximized="1"
     inkscape:current-layer="svg4" />
  <polygon
     fill-rule="nonzero"
     fill="#ff007f"
     stroke="#ff007f"
     points="170.079,321.26 170.079,283.46 151.1814,283.46 151.1814,264.57 132.2837,264.57 132.2837,226.77 151.1814,226.77 151.1814,188.98 132.2837,188.98 132.2837,132.28 113.3861,132.28 113.3861,151.18 94.4884,151.18 94.4884,264.57 113.3861,264.57 113.3861,302.36 94.4884,302.36 94.4884,321.26 75.5908,321.26 75.5908,302.36 56.693,302.36 56.693,283.46 37.796,283.46 37.796,226.77 18.898,226.77 18.898,170.08 37.796,170.08 37.796,132.28 56.693,132.28 56.693,94.49 75.5908,94.49 75.5908,56.69 94.4884,56.69 94.4884,37.79 113.3861,37.79 113.3861,75.59 132.2837,75.59 132.2837,94.49 170.079,94.49 170.079,75.59 151.1814,75.59 151.1814,18.9 170.079,18.9 170.079,0 207.8743,0 207.8743,18.9 226.7719,18.9 226.7719,75.59 207.8743,75.59 207.8743,94.49 245.6696,94.49 245.6696,75.59 264.5672,75.59 264.5672,37.79 283.465,37.79 283.465,56.69 302.362,56.69 302.362,94.49 321.26,94.49 321.26,132.28 340.158,132.28 340.158,170.08 359.055,170.08 359.055,226.77 340.158,226.77 340.158,283.46 321.26,283.46 321.26,302.36 302.362,302.36 302.362,321.26 283.465,321.26 283.465,302.36 264.5672,302.36 264.5672,264.57 283.465,264.57 283.465,151.18 264.5672,151.18 264.5672,132.28 245.6696,132.28 245.6696,188.98 226.7719,188.98 226.7719,226.77 245.6696,226.77 245.6696,264.57 226.7719,264.57 226.7719,283.46 207.8743,283.46 207.8743,340.16 188.9766,340.16 188.9766,359.05 170.079,359.05 170.079,377.95 151.1814,377.95 151.1814,396.85 75.5908,396.85 75.5908,377.95 37.796,377.95 37.796,359.05 18.898,359.05 18.898,321.26 0,321.26 0,283.46 28.347,283.46 28.347,321.26 37.796,321.26 37.796,340.16 56.693,340.16 56.693,359.05 132.2837,359.05 132.2837,340.16 151.1814,340.16 151.1814,321.26 "
     id="polygon2"
     inkscape:export-filename="/home/sam/Downloads/polygon2.png"
     inkscape:export-xdpi="96"
     inkscape:export-ydpi="96" />
</svg>
